<svg xmlns="http://www.w3.org/2000/svg" width="168.866" height="32.551" viewBox="0 0 168.866 32.551"><g id="Your-Debt-Expert-Logo" transform="translate(-141.8 -243.9)"><g id="Group_1" data-name="Group 1" transform="translate(141.8 260.539)"><path id="Path_1" data-name="Path 1" d="M149.151,306.4v5.082h-2.965V306.4l-4.387-7.5h3.3l2.571,5.022,2.571-5.022h3.3Z" transform="translate(-141.8 -298.9)" fill="#fff"></path><path id="Path_2" data-name="Path 2" d="M181.192,319.648c-2.844,0-4.992-1.785-4.992-4.659,0-2.9,2.148-4.689,4.992-4.689s4.992,1.785,4.992,4.689C186.183,317.863,184.065,319.648,181.192,319.648Zm0-7.079a2.347,2.347,0,1,0,2.057,2.329A2.081,2.081,0,0,0,181.192,312.569Z" transform="translate(-165.793 -306.851)" fill="#fff"></path><path id="Path_3" data-name="Path 3" d="M219.6,319.715l-.03-1.029a3.3,3.3,0,0,1-2.632,1.21c-2.481,0-3.237-1.513-3.237-3.751V310.7h2.934v5.052c0,1.029.3,1.755,1.331,1.755s1.513-.817,1.513-2v-4.78h2.934v8.985Z" transform="translate(-191.949 -307.13)" fill="#fff"></path><path id="Path_4" data-name="Path 4" d="M254.729,313.044h-.121a2.325,2.325,0,0,0-1.059-.212c-1.452,0-1.815,1.361-1.815,2.541v3.993H248.8v-8.985h2.934l-.03,1.271h.03a2.388,2.388,0,0,1,2.239-1.452,2.2,2.2,0,0,1,.908.151Z" transform="translate(-216.43 -306.782)" fill="#fff"></path><path id="Path_5" data-name="Path 5" d="M288.966,311.485H284.7V298.9h4.266c3.963,0,6.9,2.087,6.9,6.292S292.959,311.485,288.966,311.485Zm.181-10.134h-1.482V309h1.482a3.5,3.5,0,0,0,3.751-3.812C292.868,302.8,291.537,301.35,289.147,301.35Z" transform="translate(-241.47 -298.9)" fill="#fff"></path><path id="Path_6" data-name="Path 6" d="M334.048,315.655h-6.413a2.064,2.064,0,0,0,2.3,1.876,5.132,5.132,0,0,0,2.692-.847l1.15,1.513a6.042,6.042,0,0,1-4.266,1.452,4.462,4.462,0,0,1-4.81-4.689,4.524,4.524,0,0,1,4.84-4.659,4.241,4.241,0,0,1,4.508,4.387A9.219,9.219,0,0,1,334.048,315.655Zm-4.508-3.479a1.852,1.852,0,0,0-1.876,1.815h3.691A1.794,1.794,0,0,0,329.54,312.176Z" transform="translate(-269.369 -306.851)" fill="#fff"></path><path id="Path_7" data-name="Path 7" d="M366.248,311.7a3.435,3.435,0,0,1-2.965-1.392h-.03l.03,1.18H360.5V298.9h2.934v3.025c0,.817-.03,1.664-.03,1.664h.061a3.41,3.41,0,0,1,2.844-1.271c2.6,0,4.235,2.027,4.235,4.659S368.849,311.7,366.248,311.7Zm-.847-7.079a2.34,2.34,0,0,0,0,4.659,2.343,2.343,0,0,0,0-4.659Z" transform="translate(-294.339 -298.9)" fill="#fff"></path><path id="Path_8" data-name="Path 8" d="M399.635,307.429v3.237c0,.787.061,1.331.938,1.331a2.959,2.959,0,0,0,.877-.151l.151,2.269a7.5,7.5,0,0,1-2.087.3c-2.329,0-2.844-1.422-2.844-3.479v-3.479H395.4V305.25h1.271V302.8h2.934v2.45h2v2.208h-1.966Z" transform="translate(-318.681 -301.62)" fill="#fff"></path><path id="Path_9" data-name="Path 9" d="M432.3,311.485V298.9h8.168v2.36h-5.234v2.571h4.931v2.36h-4.931v2.934h5.385v2.39H432.3Z" transform="translate(-344.418 -298.9)" fill="#fff"></path><path id="Path_10" data-name="Path 10" d="M468.712,319.785l-2.027-2.995-2.057,2.995H461.3l3.6-4.689-3.237-4.3h3.3l1.664,2.692,1.664-2.692h3.3l-3.146,4.3,3.6,4.689Z" transform="translate(-364.645 -307.2)" fill="#fff"></path><path id="Path_11" data-name="Path 11" d="M505.278,319.648a3.209,3.209,0,0,1-2.844-1.331v4.447H499.5V310.451h2.783l-.03,1.15h.03a3.728,3.728,0,0,1,2.995-1.3c2.6,0,4.235,2.027,4.235,4.659S507.88,319.648,505.278,319.648Zm-.847-7.079a2.34,2.34,0,1,0,2.118,2.329A2.126,2.126,0,0,0,504.431,312.569Z" transform="translate(-391.289 -306.851)" fill="#fff"></path><path id="Path_12" data-name="Path 12" d="M544.848,315.655h-6.413a2.064,2.064,0,0,0,2.3,1.876,5.132,5.132,0,0,0,2.693-.847l1.15,1.513a6.042,6.042,0,0,1-4.266,1.452,4.462,4.462,0,0,1-4.81-4.689,4.524,4.524,0,0,1,4.84-4.659,4.241,4.241,0,0,1,4.508,4.387A9.233,9.233,0,0,1,544.848,315.655Zm-4.538-3.479a1.852,1.852,0,0,0-1.876,1.815h3.691A1.756,1.756,0,0,0,540.31,312.176Z" transform="translate(-416.398 -306.851)" fill="#fff"></path><path id="Path_13" data-name="Path 13" d="M576.929,313.044h-.121a2.325,2.325,0,0,0-1.059-.212c-1.452,0-1.815,1.361-1.815,2.541v3.993H571v-8.985h2.934l-.03,1.271h.03a2.388,2.388,0,0,1,2.239-1.452,2.2,2.2,0,0,1,.908.151Z" transform="translate(-441.159 -306.782)" fill="#fff"></path><path id="Path_14" data-name="Path 14" d="M595.735,307.429v3.237c0,.787.061,1.331.938,1.331a2.96,2.96,0,0,0,.877-.151l.151,2.269a7.505,7.505,0,0,1-2.087.3c-2.329,0-2.844-1.422-2.844-3.479v-3.479H591.5V305.25h1.271V302.8H595.7v2.45h2v2.208h-1.966Z" transform="translate(-455.457 -301.62)" fill="#fff"></path></g><path id="Path_15" data-name="Path 15" d="M624.9,264.834V248.226a4.325,4.325,0,0,1,4.326-4.326h14.067a4.325,4.325,0,0,1,4.326,4.326v7.926a4.325,4.325,0,0,1-4.326,4.326H629.256Zm4.356-18.423a1.821,1.821,0,0,0-1.815,1.815v10.5l.877-.877.635.091a1.043,1.043,0,0,0,.272.03h14.067a1.821,1.821,0,0,0,1.815-1.815v-7.926a1.821,1.821,0,0,0-1.815-1.815Z" transform="translate(-336.953)" fill="#fff"></path></g></svg>