<svg xmlns="http://www.w3.org/2000/svg" width="200" height="200" viewBox="0 0 200 200"><g id="Group_1994" data-name="Group 1994" transform="translate(-3987 -4141)"><path id="Path_1071" data-name="Path 1071" d="M100,0A100,100,0,1,1,0,100,100,100,0,0,1,100,0Z" transform="translate(3987 4141)" fill="#fff"></path><path id="Path_1071_-_Outline" data-name="Path 1071 - Outline" d="M100,6a94,94,0,1,0,94,94A94.106,94.106,0,0,0,100,6m0-6A100,100,0,1,1,0,100,100,100,0,0,1,100,0Z" transform="translate(3987 4141)" fill="#6ab061"></path><path id="Path_1072" data-name="Path 1072" d="M-36.531-27.786A12.553,12.553,0,0,0-45.9-24.024c.264-6.864,4.092-11.748,9.57-11.748a7.313,7.313,0,0,1,6.864,4.422l7-3.894c-2.64-5.874-8.25-8.58-13.926-8.58-12.144,0-18.282,10.89-18.282,23.694C-54.681-7.194-48.015.792-37.917.792c9.636,0,15.972-6.468,15.972-14.718C-21.945-21.45-27.753-27.786-36.531-27.786ZM-37.983-7.26c-4.224-.066-7.194-3.036-7.194-6.864.132-3.7,3.168-6.336,7.524-6.336,4.026.066,6.93,2.706,6.93,6.468C-30.723-10.164-33.693-7.26-37.983-7.26ZM.363-29.3a13.888,13.888,0,0,0-7.92,2.376l1.716-8.316H11.583V-43.3H-13.035L-16.8-21.516l5.082,3.234a15.023,15.023,0,0,1,9.5-3.894c4.62,0,7.986,3.036,7.986,7.26,0,4.422-3.5,7.59-8.448,7.59a10.12,10.12,0,0,1-8.58-5.214l-6.732,4.488C-15.147-2.838-8.613.792-2.277.792c8.976,0,16.83-6.006,16.83-15.642C14.553-23.166,8.679-29.3.363-29.3ZM28.281,0,50.853-45.474H46.035L23.529,0ZM26.7-26.664a8.747,8.747,0,0,0,8.844-8.778A8.845,8.845,0,0,0,26.7-44.286a8.747,8.747,0,0,0-8.778,8.844A8.651,8.651,0,0,0,26.7-26.664Zm0-4.818a3.813,3.813,0,0,1-3.96-3.96,3.944,3.944,0,0,1,3.96-4.026,4.086,4.086,0,0,1,4.026,4.026A3.944,3.944,0,0,1,26.7-31.482ZM46.959.594A8.747,8.747,0,0,0,55.8-8.184a8.845,8.845,0,0,0-8.844-8.844,8.747,8.747,0,0,0-8.778,8.844A8.651,8.651,0,0,0,46.959.594Zm0-4.818A3.813,3.813,0,0,1,43-8.184a3.944,3.944,0,0,1,3.96-4.026,4.042,4.042,0,0,1,4.026,4.026A3.9,3.9,0,0,1,46.959-4.224Z" transform="translate(4086 4253)" fill="#6ab061"></path><path id="Path_1072_-_Outline" data-name="Path 1072 - Outline" d="M45.725-45.974h5.935L28.591.5H22.724Zm4.322,1h-3.7L24.334-.5h3.637Zm-23.35.188a9.355,9.355,0,0,1,9.344,9.344,9.184,9.184,0,0,1-2.74,6.6,9.345,9.345,0,0,1-6.6,2.676,9.246,9.246,0,0,1-6.6-2.679,9.246,9.246,0,0,1-2.679-6.6,9.345,9.345,0,0,1,2.676-6.6A9.184,9.184,0,0,1,26.7-44.786Zm0,17.622a8.351,8.351,0,0,0,5.9-2.389,8.192,8.192,0,0,0,2.441-5.889A8.353,8.353,0,0,0,26.7-43.786a8.192,8.192,0,0,0-5.889,2.441,8.351,8.351,0,0,0-2.389,5.9,8.253,8.253,0,0,0,2.386,5.892A8.253,8.253,0,0,0,26.7-27.164Zm-63.1-17.16a16.692,16.692,0,0,1,8.352,2.154A14.459,14.459,0,0,1-24.6-39.4a14.9,14.9,0,0,1,2.578,3.951l.188.419L-29.7-30.647l-.222-.5a6.824,6.824,0,0,0-6.407-4.125,7.949,7.949,0,0,0-6.351,3.114,13.3,13.3,0,0,0-2.627,6.9,12.437,12.437,0,0,1,3.1-1.922,14.263,14.263,0,0,1,5.676-1.105,16.53,16.53,0,0,1,6.168,1.143,14.253,14.253,0,0,1,4.769,3.11,14.094,14.094,0,0,1,4.149,10.107A14.728,14.728,0,0,1-25.973-3.111,15.39,15.39,0,0,1-31.18.12a19.023,19.023,0,0,1-6.737,1.172A15.6,15.6,0,0,1-50.474-4.5c-3.079-3.8-4.707-9.2-4.707-15.627a35.33,35.33,0,0,1,1.166-9.235,24.323,24.323,0,0,1,3.512-7.7A16.608,16.608,0,0,1-36.4-44.324Zm13.276,8.87a13.386,13.386,0,0,0-5.424-5.85,15.692,15.692,0,0,0-7.851-2.02,16.233,16.233,0,0,0-7.744,1.843,16.067,16.067,0,0,0-5.543,4.991A23.33,23.33,0,0,0-53.05-29.1a34.331,34.331,0,0,0-1.131,8.973c0,6.192,1.55,11.378,4.484,15A14.629,14.629,0,0,0-37.917.292,18.028,18.028,0,0,0-31.533-.815a14.4,14.4,0,0,0,4.871-3.02,13.738,13.738,0,0,0,4.217-10.09,13.1,13.1,0,0,0-3.853-9.4,13.259,13.259,0,0,0-4.436-2.892,15.535,15.535,0,0,0-5.8-1.072,12.054,12.054,0,0,0-9.013,3.61l-.909.937.05-1.3a17.272,17.272,0,0,1,.862-4.872,12.539,12.539,0,0,1,2.078-3.87,9.435,9.435,0,0,1,3.137-2.563,8.863,8.863,0,0,1,3.992-.923,7.787,7.787,0,0,1,7.084,4.227Zm9.667-8.342H12.083v9.052H-5.434l-1.4,6.764A14.854,14.854,0,0,1,.363-29.8c8.512,0,14.69,6.289,14.69,14.954A16.04,16.04,0,0,1,13.64-8.133,15.078,15.078,0,0,1,9.834-3.04,18.277,18.277,0,0,1-2.277,1.292a19.6,19.6,0,0,1-9.41-2.531,17.266,17.266,0,0,1-6.737-6.574l-.219-.4,7.592-5.061.249.52a9.6,9.6,0,0,0,8.129,4.93A8.52,8.52,0,0,0,3.073-9.834a6.732,6.732,0,0,0,2.2-5.082,6.442,6.442,0,0,0-2.1-4.844,7.958,7.958,0,0,0-5.39-1.916,14.569,14.569,0,0,0-9.175,3.77l-.282.247-5.679-3.614Zm24.539,1h-23.7l-3.634,21.037,4.489,2.857a17.291,17.291,0,0,1,4.329-2.653,13.44,13.44,0,0,1,5.218-1.12c4.917,0,8.486,3.264,8.486,7.76A7.719,7.719,0,0,1,3.742-9.091,9.513,9.513,0,0,1-2.673-6.826,10.466,10.466,0,0,1-7.912-8.365a9.9,9.9,0,0,1-3.525-3.452L-17.32-7.894A16.466,16.466,0,0,0-11.2-2.111,18.583,18.583,0,0,0-2.277.292,17.279,17.279,0,0,0,9.174-3.791a14.084,14.084,0,0,0,3.556-4.757,15.048,15.048,0,0,0,1.322-6.3,14.164,14.164,0,0,0-3.835-10A12.737,12.737,0,0,0,5.9-27.752,14.515,14.515,0,0,0,.363-28.8,13.441,13.441,0,0,0-7.268-26.52l-1.036.735,2.055-9.959H11.083ZM26.7-39.968a4.587,4.587,0,0,1,4.526,4.526,4.446,4.446,0,0,1-4.526,4.46,4.314,4.314,0,0,1-4.46-4.46A4.446,4.446,0,0,1,26.7-39.968Zm0,7.986a3.572,3.572,0,0,0,2.484-.975,3.4,3.4,0,0,0,1.042-2.485,3.492,3.492,0,0,0-1.05-2.476,3.492,3.492,0,0,0-2.476-1.05,3.4,3.4,0,0,0-2.485,1.042,3.572,3.572,0,0,0-.975,2.484A3.31,3.31,0,0,0,26.7-31.982ZM-37.653-20.96h.008a7.942,7.942,0,0,1,5.306,1.981,6.7,6.7,0,0,1,2.116,4.987A7.005,7.005,0,0,1-32.4-8.827,8.061,8.061,0,0,1-37.983-6.76h-.008a8.047,8.047,0,0,1-5.521-2.162,7.161,7.161,0,0,1-2.165-5.2v-.018C-45.533-18.156-42.234-20.96-37.653-20.96Zm-.326,13.2a7.067,7.067,0,0,0,4.892-1.794,6.015,6.015,0,0,0,1.864-4.438c0-3.451-2.645-5.9-6.434-5.968A7.617,7.617,0,0,0-42.675-18.3a5.618,5.618,0,0,0-2,4.182C-44.672-10.494-41.857-7.822-37.979-7.76Zm84.938-9.768A9.355,9.355,0,0,1,56.3-8.184a9.184,9.184,0,0,1-2.74,6.6,9.345,9.345,0,0,1-6.6,2.676,9.246,9.246,0,0,1-6.6-2.679,9.246,9.246,0,0,1-2.679-6.6,9.345,9.345,0,0,1,2.676-6.6A9.185,9.185,0,0,1,46.959-17.528Zm0,17.622a8.351,8.351,0,0,0,5.9-2.389A8.192,8.192,0,0,0,55.3-8.184a8.353,8.353,0,0,0-8.344-8.344,8.192,8.192,0,0,0-5.889,2.441,8.351,8.351,0,0,0-2.389,5.9,8.253,8.253,0,0,0,2.386,5.892A8.253,8.253,0,0,0,46.959.094Zm0-12.8a4.531,4.531,0,0,1,4.526,4.526,4.395,4.395,0,0,1-4.526,4.46,4.314,4.314,0,0,1-4.46-4.46A4.446,4.446,0,0,1,46.959-12.71Zm0,7.986A3.575,3.575,0,0,0,49.466-5.7a3.413,3.413,0,0,0,1.019-2.487,3.53,3.53,0,0,0-3.526-3.526,3.4,3.4,0,0,0-2.485,1.042A3.572,3.572,0,0,0,43.5-8.184,3.31,3.31,0,0,0,46.959-4.724Z" transform="translate(4086 4253)" fill="rgba(0,0,0,0)"></path><path id="Path_1073" data-name="Path 1073" d="M-54.108-7.38a3.3,3.3,0,0,0-2.7-1.242,4.182,4.182,0,0,0-4.122,4.41A4.2,4.2,0,0,0-56.808.216a3.364,3.364,0,0,0,2.7-1.26V0h2.358V-12.978h-2.358Zm-2.25,5.4a2.221,2.221,0,0,1-2.178-2.232,2.193,2.193,0,0,1,2.178-2.214A2.216,2.216,0,0,1-54.18-4.212,2.209,2.209,0,0,1-56.358-1.98ZM-41.49-4.338a4.2,4.2,0,0,0-4.374-4.284,4.321,4.321,0,0,0-4.464,4.428A4.283,4.283,0,0,0-45.846.216,4.7,4.7,0,0,0-42.12-1.476l-1.368-1.386a3,3,0,0,1-2.214.99,2.057,2.057,0,0,1-2.16-1.566h6.318C-41.508-3.816-41.49-4.1-41.49-4.338Zm-6.372-.63a1.954,1.954,0,0,1,2.052-1.62,1.791,1.791,0,0,1,1.944,1.62Zm12.8-3.654a3.359,3.359,0,0,0-2.7,1.224v-5.58h-2.358V0h2.358V-1.044a3.339,3.339,0,0,0,2.7,1.26,4.2,4.2,0,0,0,4.122-4.428A4.182,4.182,0,0,0-35.064-8.622Zm-.45,6.642a2.209,2.209,0,0,1-2.178-2.232,2.216,2.216,0,0,1,2.178-2.214,2.178,2.178,0,0,1,2.16,2.214A2.206,2.206,0,0,1-35.514-1.98Zm9-6.426v-3.06h-2.358v3.06H-30.4V-6.57h1.53V0h2.358V-6.57h1.782V-8.406Zm14.742,5.13-1.6-5.13h-1.98l-1.6,5.13-1.584-5.13H-21.1L-18.036,0h2.016l1.674-5.454L-12.618,0H-10.6l2.97-8.406h-2.556Zm9.81-5.346A2.582,2.582,0,0,0-4.428-6.606v-1.8h-2.34V0H-4.41V-2.88c0-2.394.828-3.528,2.034-3.528A2.447,2.447,0,0,1-1.17-6.1l.54-2.25A2.993,2.993,0,0,0-1.962-8.622ZM1.35-9.882A1.453,1.453,0,0,0,2.844-11.3a1.439,1.439,0,0,0-1.494-1.4A1.45,1.45,0,0,0-.144-11.3,1.465,1.465,0,0,0,1.35-9.882ZM2.538,0V-8.406H.18V0ZM7.632-8.406v-3.06H5.274v3.06H3.744V-6.57h1.53V0H7.632V-6.57H9.414V-8.406Zm6.03,0v-3.06H11.3v3.06H9.774V-6.57H11.3V0h2.358V-6.57h1.782V-8.406Zm11,4.068a4.2,4.2,0,0,0-4.374-4.284,4.321,4.321,0,0,0-4.464,4.428A4.283,4.283,0,0,0,20.3.216,4.7,4.7,0,0,0,24.03-1.476L22.662-2.862a3,3,0,0,1-2.214.99,2.057,2.057,0,0,1-2.16-1.566h6.318C24.642-3.816,24.66-4.1,24.66-4.338Zm-6.372-.63a1.954,1.954,0,0,1,2.052-1.62,1.791,1.791,0,0,1,1.944,1.62ZM30.906-8.622a2.717,2.717,0,0,0-2.52,1.638V-8.406H26.028V0h2.358V-4.41a1.79,1.79,0,0,1,1.89-1.98c.81,0,1.6.594,1.6,1.908V0h2.358V-4.608C34.254-7.128,33.1-8.622,30.906-8.622ZM43.884.216A4.394,4.394,0,0,0,48.4-4.194a4.4,4.4,0,0,0-4.518-4.428,4.4,4.4,0,0,0-4.518,4.428A4.394,4.394,0,0,0,43.884.216Zm0-2.2A2.127,2.127,0,0,1,41.76-4.194a2.132,2.132,0,0,1,2.124-2.232,2.132,2.132,0,0,1,2.124,2.232A2.127,2.127,0,0,1,43.884-1.98Zm17.892-8.8v-2.2H60.768c-2.394,0-3.69,1.44-3.69,3.96v.612H52.83v-.63a1.575,1.575,0,0,1,1.8-1.746h.54v-2.2H54.162c-2.394,0-3.69,1.44-3.69,3.96v.612H48.888V-6.57h1.584V0H52.83V-6.57h4.248V0h2.358V-6.57h1.836V-8.406H59.436v-.63a1.575,1.575,0,0,1,1.8-1.746Z" transform="translate(4082 4279)" fill="#13580a"></path><path id="Path_1073_-_Outline" data-name="Path 1073 - Outline" d="M-54.608-13.478h3.358V.5h-3.358V.1a4.3,4.3,0,0,1-2.2.617,4.505,4.505,0,0,1-3.227-1.35,5.031,5.031,0,0,1-1.4-3.578,5,5,0,0,1,1.4-3.57,4.516,4.516,0,0,1,3.226-1.34,4.285,4.285,0,0,1,2.2.6Zm2.358,1h-1.358V-5.77L-54.52-7.1a2.841,2.841,0,0,0-2.288-1.025,3.523,3.523,0,0,0-2.516,1.045A3.958,3.958,0,0,0-60.43-4.212,3.7,3.7,0,0,0-56.808-.284,2.866,2.866,0,0,0-54.52-1.327l.912-1.327V-.5h1.358Zm11.628-1h3.358v4.956a4.39,4.39,0,0,1,2.2-.6,4.516,4.516,0,0,1,3.226,1.34A4.645,4.645,0,0,1-30.9-6.417V-8.906h1.53v-3.06h3.358v3.06h1.782V-6.07h-1.782V.5h-3.358V-6.07h-1.389a5.426,5.426,0,0,1,.319,1.858,5.031,5.031,0,0,1-1.4,3.578A4.505,4.505,0,0,1-35.064.716,4.3,4.3,0,0,1-37.264.1V.5h-3.358Zm2.358,1h-1.358V-.5h1.358V-2.654l.912,1.327A2.866,2.866,0,0,0-35.064-.284a3.7,3.7,0,0,0,3.622-3.928,3.958,3.958,0,0,0-1.106-2.865,3.523,3.523,0,0,0-2.516-1.045,2.9,2.9,0,0,0-2.291,1.011l-.909,1.295Zm11.25,1.512h-1.358v3.06H-29.9v.836h1.53V-.5h1.358V-7.07h1.782v-.836h-1.782Zm81.176-2.512H55.67v3.2H54.63c-.918,0-1.283.351-1.3,1.251v.125h3.248v-.112a4.651,4.651,0,0,1,1.08-3.264,4.039,4.039,0,0,1,3.11-1.2h1.508v3.2h-1.04c-.918,0-1.283.351-1.3,1.251v.125h1.836V-6.07H59.936V.5H56.578V-6.07H53.33V.5H49.972V-6.07H48.548A5.037,5.037,0,0,1,48.9-4.194,4.8,4.8,0,0,1,47.381-.631a5.108,5.108,0,0,1-3.5,1.347,5.108,5.108,0,0,1-3.5-1.347,4.8,4.8,0,0,1-1.521-3.563,4.827,4.827,0,0,1,1.52-3.579,5.1,5.1,0,0,1,3.5-1.349,5.1,5.1,0,0,1,3.5,1.349,4.712,4.712,0,0,1,1.006,1.346V-8.906h1.584v-.112a4.651,4.651,0,0,1,1.08-3.264A4.039,4.039,0,0,1,54.162-13.478Zm.508,1h-.508c-2.637,0-3.19,1.882-3.19,3.46v1.112H49.388v.836h1.584V-.5H52.33V-7.07h5.248V-.5h1.358V-7.07h1.836v-.836H58.936V-9.045a2.069,2.069,0,0,1,2.3-2.237h.04v-1.2h-.508c-2.637,0-3.19,1.882-3.19,3.46v1.112H52.33V-9.045a2.069,2.069,0,0,1,2.3-2.237h.04ZM43.884-.284A4.112,4.112,0,0,0,46.7-1.363a3.812,3.812,0,0,0,1.2-2.831,3.838,3.838,0,0,0-1.2-2.847,4.1,4.1,0,0,0-2.816-1.081,4.1,4.1,0,0,0-2.816,1.081,3.838,3.838,0,0,0-1.2,2.847,3.812,3.812,0,0,0,1.2,2.831A4.112,4.112,0,0,0,43.884-.284ZM1.35-13.208a1.93,1.93,0,0,1,1.994,1.9A1.961,1.961,0,0,1,1.35-9.382,1.961,1.961,0,0,1-.644-11.3,1.953,1.953,0,0,1,1.35-13.208Zm0,2.826a.95.95,0,0,0,.994-.922.942.942,0,0,0-.994-.9.953.953,0,0,0-.994.9A.961.961,0,0,0,1.35-10.382Zm3.424-1.584H8.132v3.06H10.8v-3.06h3.358v3.06h1.782v2.231a4.6,4.6,0,0,1,.87-1.117,5.034,5.034,0,0,1,3.472-1.33,4.957,4.957,0,0,1,3.435,1.314,4.71,4.71,0,0,1,1.439,3.47c0,.243-.018.544-.056.947l-.043.453H23.29l1.4,1.417-.257.344A5.175,5.175,0,0,1,20.3.716a4.784,4.784,0,0,1-4.982-4.91,5.211,5.211,0,0,1,.339-1.876h-1.5V.5H10.8V-6.07H8.132V.5H4.774V-6.07H3.244V-8.906h1.53Zm2.358,1H5.774v3.06H4.244v.836h1.53V-.5H7.132V-7.07H8.914v-.836H7.132Zm6.03,0H11.8v3.06h-1.53v.836H11.8V-.5h1.358V-7.07h1.782v-.836H13.162ZM24.145-3.938c.01-.155.015-.286.015-.4a3.7,3.7,0,0,0-3.874-3.784,3.822,3.822,0,0,0-3.964,3.928A3.776,3.776,0,0,0,20.3-.284,4.394,4.394,0,0,0,23.35-1.453l-.7-.707a3.514,3.514,0,0,1-2.2.788A2.549,2.549,0,0,1,17.8-3.315l-.159-.623Zm-2.123,1H19.076a1.684,1.684,0,0,0,1.372.566A2.537,2.537,0,0,0,22.022-2.938ZM-45.864-9.122a4.957,4.957,0,0,1,3.435,1.314,4.71,4.71,0,0,1,1.439,3.47c0,.243-.018.544-.056.947l-.043.453H-42.86l1.4,1.417-.257.344A5.175,5.175,0,0,1-45.846.716a4.784,4.784,0,0,1-4.982-4.91,4.862,4.862,0,0,1,1.492-3.6A5.034,5.034,0,0,1-45.864-9.122ZM-42-3.938c.01-.155.015-.286.015-.4a3.7,3.7,0,0,0-3.874-3.784,3.822,3.822,0,0,0-3.964,3.928,3.776,3.776,0,0,0,3.982,3.91A4.394,4.394,0,0,0-42.8-1.453l-.7-.707a3.514,3.514,0,0,1-2.2.788,2.549,2.549,0,0,1-2.645-1.943l-.159-.623Zm-2.123,1h-2.947a1.684,1.684,0,0,0,1.372.566A2.537,2.537,0,0,0-44.128-2.938ZM-1.962-9.122A3.481,3.481,0,0,1-.4-8.795l.078.041v-.152H3.038V.5H-.32v-8L-.835-5.355l-.571-.306a1.947,1.947,0,0,0-.97-.247C-3.761-5.908-3.91-3.79-3.91-2.88V.5H-7.268V-7.935L-10.248.5h-2.736l-1.354-4.275L-15.65.5h-2.736L-21.81-8.906h3.639l1.218,3.944,1.232-3.944h2.715l1.232,3.944,1.218-3.944h6.629v.548A2.812,2.812,0,0,1-1.962-9.122Zm.743,1.083a3.133,3.133,0,0,0-.743-.083A2.111,2.111,0,0,0-3.954-6.448l-.974-.158v-1.3h-1.34V-.5H-4.91V-2.88A5.625,5.625,0,0,1-4.271-5.8a2.15,2.15,0,0,1,1.9-1.1,2.9,2.9,0,0,1,.856.121Zm-17.69.133h-1.473l2.7,7.406h1.3l2.036-6.633,2.1,6.633h1.3l2.617-7.406h-1.48l-1.95,6.316-1.972-6.316h-1.245L-16.959-1.59Zm20.947,0H.68V-.5H2.038ZM30.906-9.122a3.6,3.6,0,0,1,2.666,1A4.755,4.755,0,0,1,34.736-4.6V.5H31.378V-4.482c0-1.038-.569-1.408-1.1-1.408a1.3,1.3,0,0,0-1.39,1.48V.5H25.528V-8.906h3.358v.456A3.668,3.668,0,0,1,30.906-9.122ZM33.736-.5V-4.608a3.874,3.874,0,0,0-.874-2.8,2.645,2.645,0,0,0-1.956-.709,2.23,2.23,0,0,0-2.043,1.289l-.977-.151v-.922H26.528V-.5h1.358V-4.41a2.284,2.284,0,0,1,2.39-2.48,2.164,2.164,0,0,1,2.1,2.408V-.5ZM-45.81-7.088A2.289,2.289,0,0,1-43.367-5l.039.536h-5.157l.135-.608A2.455,2.455,0,0,1-45.81-7.088Zm1.281,1.62a1.422,1.422,0,0,0-1.281-.62,1.5,1.5,0,0,0-1.315.62ZM20.34-7.088A2.289,2.289,0,0,1,22.783-5l.039.536H17.665l.135-.608A2.455,2.455,0,0,1,20.34-7.088Zm1.281,1.62a1.422,1.422,0,0,0-1.281-.62,1.5,1.5,0,0,0-1.315.62ZM-56.358-6.926a2.7,2.7,0,0,1,1.847.761,2.686,2.686,0,0,1,.831,1.953A2.708,2.708,0,0,1-56.358-1.48a2.708,2.708,0,0,1-2.678-2.732A2.7,2.7,0,0,1-56.358-6.926Zm0,4.446A1.708,1.708,0,0,0-54.68-4.212a1.72,1.72,0,0,0-1.678-1.714,1.7,1.7,0,0,0-1.678,1.714A1.728,1.728,0,0,0-56.358-2.48Zm20.844-4.446a2.62,2.62,0,0,1,1.882.791,2.723,2.723,0,0,1,.778,1.923,2.7,2.7,0,0,1-2.66,2.732,2.708,2.708,0,0,1-2.678-2.732,2.686,2.686,0,0,1,.831-1.953A2.7,2.7,0,0,1-35.514-6.926Zm0,4.446a1.7,1.7,0,0,0,1.66-1.732,1.67,1.67,0,0,0-1.66-1.714,1.72,1.72,0,0,0-1.678,1.714A1.708,1.708,0,0,0-35.514-2.48Zm79.4-4.446a2.621,2.621,0,0,1,2.624,2.732,2.745,2.745,0,0,1-.767,1.943,2.581,2.581,0,0,1-1.857.771,2.581,2.581,0,0,1-1.857-.771,2.745,2.745,0,0,1-.767-1.943A2.621,2.621,0,0,1,43.884-6.926Zm0,4.446a1.634,1.634,0,0,0,1.624-1.714,1.625,1.625,0,0,0-1.624-1.732A1.625,1.625,0,0,0,42.26-4.194,1.634,1.634,0,0,0,43.884-2.48Z" transform="translate(4082 4279)" fill="rgba(0,0,0,0)"></path></g></svg>