<svg xmlns="http://www.w3.org/2000/svg" width="206.433" height="39.793" viewBox="0 0 206.433 39.793"><g id="Your-Debt-Expert-Logo" transform="translate(-141.8 -243.9)"><g id="Group_1" data-name="Group 1" transform="translate(141.8 264.24)"><path id="Path_1" data-name="Path 1" d="M150.787,308.072v6.213h-3.624v-6.213L141.8,298.9h4.031l3.143,6.139,3.143-6.139h4.031Z" transform="translate(-141.8 -298.9)" fill="#fff"></path><path id="Path_2" data-name="Path 2" d="M182.3,321.727c-3.476,0-6.1-2.182-6.1-5.7,0-3.55,2.626-5.732,6.1-5.732s6.1,2.182,6.1,5.732C188.4,319.545,185.815,321.727,182.3,321.727Zm0-8.654a2.87,2.87,0,1,0,2.515,2.848A2.544,2.544,0,0,0,182.3,313.074Z" transform="translate(-163.478 -306.084)" fill="#fff"></path><path id="Path_3" data-name="Path 3" d="M220.911,321.721l-.037-1.257a4.029,4.029,0,0,1-3.217,1.479c-3.033,0-3.957-1.849-3.957-4.586V310.7h3.587v6.176c0,1.257.37,2.145,1.627,2.145s1.849-1,1.849-2.441v-5.843h3.587v10.984Z" transform="translate(-187.11 -306.336)" fill="#fff"></path><path id="Path_4" data-name="Path 4" d="M256.048,313.676H255.9a2.843,2.843,0,0,0-1.294-.259c-1.775,0-2.219,1.664-2.219,3.107v4.882H248.8V310.422h3.587l-.037,1.553h.037a2.919,2.919,0,0,1,2.737-1.775,2.684,2.684,0,0,1,1.109.185Z" transform="translate(-209.229 -306.021)" fill="#fff"></path><path id="Path_5" data-name="Path 5" d="M289.914,314.284H284.7V298.9h5.214c4.845,0,8.432,2.552,8.432,7.692S294.8,314.284,289.914,314.284Zm.222-12.389h-1.812v9.356h1.812a4.275,4.275,0,0,0,4.586-4.66C294.685,303.671,293.058,301.9,290.136,301.9Z" transform="translate(-231.853 -298.9)" fill="#fff"></path><path id="Path_6" data-name="Path 6" d="M336.127,316.846h-7.84a2.523,2.523,0,0,0,2.811,2.293,6.274,6.274,0,0,0,3.291-1.035l1.405,1.849a7.386,7.386,0,0,1-5.214,1.775c-3.4,0-5.88-2.108-5.88-5.732s2.663-5.7,5.917-5.7a5.185,5.185,0,0,1,5.51,5.362A11.265,11.265,0,0,1,336.127,316.846Zm-5.51-4.253a2.264,2.264,0,0,0-2.293,2.219h4.512A2.193,2.193,0,0,0,330.617,312.593Z" transform="translate(-257.06 -306.084)" fill="#fff"></path><path id="Path_7" data-name="Path 7" d="M367.527,314.543a4.2,4.2,0,0,1-3.624-1.7h-.037l.037,1.442h-3.4V298.9h3.587v3.7c0,1-.037,2.034-.037,2.034h.074a4.168,4.168,0,0,1,3.476-1.553c3.181,0,5.177,2.478,5.177,5.7S370.707,314.543,367.527,314.543Zm-1.035-8.654a2.861,2.861,0,0,0,0,5.7,2.865,2.865,0,0,0,0-5.7Z" transform="translate(-279.621 -298.9)" fill="#fff"></path><path id="Path_8" data-name="Path 8" d="M400.577,308.458v3.957c0,.961.074,1.627,1.146,1.627a3.618,3.618,0,0,0,1.072-.185l.185,2.774a9.173,9.173,0,0,1-2.552.37c-2.848,0-3.476-1.738-3.476-4.253V308.5H395.4v-2.7h1.553v-3h3.587v3h2.441v2.7h-2.4Z" transform="translate(-301.614 -301.358)" fill="#fff"></path><path id="Path_9" data-name="Path 9" d="M432.3,314.284V298.9h9.985v2.885h-6.4v3.143h6.028v2.885h-6.028V311.4h6.583v2.922H432.3Z" transform="translate(-324.868 -298.9)"></path><path id="Path_10" data-name="Path 10" d="M470.361,321.784l-2.478-3.661-2.515,3.661H461.3l4.4-5.732-3.957-5.251h4.031l2.034,3.291,2.034-3.291h4.031l-3.846,5.251,4.4,5.732Z" transform="translate(-343.143 -306.399)"></path><path id="Path_11" data-name="Path 11" d="M506.564,321.727a3.923,3.923,0,0,1-3.476-1.627v5.436H499.5V310.485h3.4l-.037,1.405h.037a4.558,4.558,0,0,1,3.661-1.59c3.18,0,5.177,2.478,5.177,5.7S509.744,321.727,506.564,321.727Zm-1.035-8.654a2.861,2.861,0,1,0,2.589,2.848A2.6,2.6,0,0,0,505.528,313.074Z" transform="translate(-367.216 -306.084)"></path><path id="Path_12" data-name="Path 12" d="M546.927,316.846h-7.84a2.523,2.523,0,0,0,2.811,2.293,6.274,6.274,0,0,0,3.291-1.035l1.405,1.849a7.386,7.386,0,0,1-5.214,1.775c-3.4,0-5.88-2.108-5.88-5.732s2.663-5.7,5.917-5.7a5.185,5.185,0,0,1,5.51,5.362A11.289,11.289,0,0,1,546.927,316.846Zm-5.547-4.253a2.264,2.264,0,0,0-2.293,2.219H543.6A2.147,2.147,0,0,0,541.38,312.593Z" transform="translate(-389.902 -306.084)"></path><path id="Path_13" data-name="Path 13" d="M578.248,313.676H578.1a2.843,2.843,0,0,0-1.294-.259c-1.775,0-2.219,1.664-2.219,3.107v4.882H571V310.422h3.587l-.037,1.553h.037a2.919,2.919,0,0,1,2.737-1.775,2.685,2.685,0,0,1,1.109.185Z" transform="translate(-412.274 -306.021)"></path><path id="Path_14" data-name="Path 14" d="M596.677,308.458v3.957c0,.961.074,1.627,1.146,1.627a3.617,3.617,0,0,0,1.072-.185l.185,2.774a9.175,9.175,0,0,1-2.552.37c-2.848,0-3.476-1.738-3.476-4.253V308.5H591.5v-2.7h1.553v-3h3.587v3h2.441v2.7h-2.4Z" transform="translate(-425.192 -301.358)"></path></g><path id="Path_15" data-name="Path 15" d="M624.9,269.491v-20.3a5.287,5.287,0,0,1,5.288-5.288h17.2a5.287,5.287,0,0,1,5.288,5.288v9.689a5.287,5.287,0,0,1-5.288,5.288h-17.16Zm5.325-22.522a2.225,2.225,0,0,0-2.219,2.219v12.833l1.073-1.072.777.111a1.273,1.273,0,0,0,.333.037h17.2a2.225,2.225,0,0,0,2.219-2.219v-9.689a2.225,2.225,0,0,0-2.219-2.219Z" transform="translate(-304.44 0)" fill="#fff"></path></g></svg>