<svg xmlns="http://www.w3.org/2000/svg" width="200" height="200" viewBox="0 0 200 200"><g id="Group_1995" data-name="Group 1995" transform="translate(-4204 -4141)"><path id="Path_1074" data-name="Path 1074" d="M100,0A100,100,0,1,1,0,100,100,100,0,0,1,100,0Z" transform="translate(4204 4141)" fill="#fff"></path><path id="Path_1074_-_Outline" data-name="Path 1074 - Outline" d="M100,6a94,94,0,1,0,94,94A94.106,94.106,0,0,0,100,6m0-6A100,100,0,1,1,0,100,100,100,0,0,1,100,0Z" transform="translate(4204 4141)" fill="#6ab061"></path><path id="Path_1075" data-name="Path 1075" d="M-26.922-8.36c0,1.21-.33,2.035-1.595,2.035H-39.022V-13.86h6.6v-3.465h-6.6V-24.2c0-3.3,1.87-5.5,4.455-5.5,2.915,0,4.9,1.815,4.9,5.885h7.2c0-9.075-5.61-12.54-12.21-12.54s-11.6,4.29-11.6,12.045v6.985h-3.795v3.465h3.795v7.535h-5.39V0h25.245a6.892,6.892,0,0,0,6.71-7.2v-3.96h-7.2Zm9.295-21.945v6.765l8.3-3.19V0h7.26V-36.52h-.6Zm20.24,0v6.765l8.3-3.19V0h7.26V-36.52h-.6ZM37.7.66c10.4,0,13.31-8.36,13.31-18.59,0-10.395-2.915-18.59-13.31-18.59-10.5,0-13.475,8.2-13.475,18.59C24.228-7.7,27.2.66,37.7.66Zm0-6.71c-4.73,0-6.16-5.335-6.16-11.88,0-6.655,1.43-11.88,6.16-11.88,4.62,0,5.94,5.225,5.94,11.88C43.643-11.385,42.323-6.05,37.7-6.05Z" transform="translate(4304 4257)" fill="#6ab061"></path><path id="Path_1075_-_Outline" data-name="Path 1075 - Outline" d="M37.7,1.16c-5.061,0-8.8-1.917-11.1-5.7a18.636,18.636,0,0,1-2.233-6.074,37.894,37.894,0,0,1-.638-7.318c0-5.906.939-10.307,2.872-13.455a11.235,11.235,0,0,1,4.332-4.134,14.343,14.343,0,0,1,6.771-1.5,14.057,14.057,0,0,1,6.7,1.5,11.145,11.145,0,0,1,4.279,4.136c1.9,3.143,2.829,7.543,2.829,13.452a38.472,38.472,0,0,1-.627,7.317,18.768,18.768,0,0,1-2.2,6.072C46.407-.758,42.712,1.16,37.7,1.16Zm0-37.18a13.362,13.362,0,0,0-6.3,1.385,10.249,10.249,0,0,0-3.948,3.774c-1.833,2.986-2.724,7.216-2.724,12.932C24.727-5.757,28.972.16,37.7.16a12.921,12.921,0,0,0,6.226-1.405,10.273,10.273,0,0,0,3.9-3.811A17.782,17.782,0,0,0,49.9-10.806a37.481,37.481,0,0,0,.609-7.124c0-5.721-.878-9.952-2.685-12.934a10.159,10.159,0,0,0-3.9-3.772A13.077,13.077,0,0,0,37.7-36.02ZM18.678.5h-8.26V-26l-8.305,3.19v-7.826l15.36-6.381h1.2Zm-7.26-1h6.26V-36.02h-.005L3.113-29.971v5.7l8.305-3.19ZM-1.563.5h-8.26V-26l-8.3,3.19v-7.826l15.36-6.381h1.2Zm-7.26-1h6.26V-36.02h-.005l-14.56,6.049v5.7l8.3-3.19Zm-17.6,1H-52.172V-6.825h5.39V-13.36h-3.8v-4.465h3.8V-24.31A12.651,12.651,0,0,1-43.306-33.6a10.9,10.9,0,0,1,3.855-2.435,13.565,13.565,0,0,1,4.773-.823,13.07,13.07,0,0,1,8.914,2.995c2.519,2.262,3.8,5.642,3.8,10.045v.5h-8.2v-.5c0-3.523-1.52-5.385-4.395-5.385a3.532,3.532,0,0,0-2.811,1.33,5.7,5.7,0,0,0-1.144,3.67v6.375h6.6v4.465h-6.6v6.535h10c.71,0,1.1-.245,1.1-1.535v-3.3h8.2v4.46A7.39,7.39,0,0,1-26.427.5Zm-24.745-1h24.745a6.4,6.4,0,0,0,6.21-6.705v-3.46h-6.2v2.3a3.06,3.06,0,0,1-.408,1.75,1.894,1.894,0,0,1-1.687.785h-11V-14.36h6.6v-2.465h-6.6V-24.2c0-3.533,2.038-6,4.955-6a5.063,5.063,0,0,1,3.914,1.583,6.691,6.691,0,0,1,1.471,4.3h6.209c-.092-3.862-1.254-6.821-3.458-8.8a12.1,12.1,0,0,0-8.246-2.739A11.009,11.009,0,0,0-42.6-32.884a11.679,11.679,0,0,0-3.178,8.574v7.485h-3.8v2.465h3.8v8.535h-5.39ZM37.7-5.55c-2.417,0-4.2-1.273-5.311-3.784a22.015,22.015,0,0,1-1.349-8.6,21.751,21.751,0,0,1,1.349-8.638c1.1-2.483,2.888-3.742,5.311-3.742,2.37,0,4.107,1.261,5.163,3.749a22.686,22.686,0,0,1,1.277,8.631,22.636,22.636,0,0,1-1.277,8.589C41.8-6.826,40.068-5.55,37.7-5.55Zm0-23.76c-2.019,0-3.457,1.029-4.4,3.147a21.134,21.134,0,0,0-1.263,8.233,21.081,21.081,0,0,0,1.264,8.193c.946,2.145,2.384,3.187,4.4,3.187,1.952,0,3.339-1.04,4.242-3.18a22.032,22.032,0,0,0,1.2-8.2,21.775,21.775,0,0,0-1.2-8.24C41.048-28.283,39.66-29.31,37.7-29.31Z" transform="translate(4304 4257)" fill="rgba(0,0,0,0)"></path><path id="Path_1076" data-name="Path 1076" d="M-49.923,0V-12.4h-2.5V0Zm6.264-4.032-2.286-8.37h-2.592L-44.775,0h2.25l3.762-12.4h-2.61ZM-27.729,0l-4.608-12.4h-2.7L-39.663,0H-37l.99-2.97h4.644L-30.357,0Zm-5.958-9.846,1.584,4.7h-3.168ZM-23.355-12.4V0h2.5V-4.338H-18.3a3.8,3.8,0,0,0,4.05-4.014A3.825,3.825,0,0,0-18.3-12.4Zm2.5,5.868v-3.654h2.466a1.632,1.632,0,0,1,1.62,1.836,1.633,1.633,0,0,1-1.656,1.818Zm13.77-.756A3.224,3.224,0,0,0-9.8-8.622a4.091,4.091,0,0,0-4.1,4.428A4.085,4.085,0,0,0-9.855.216,3.327,3.327,0,0,0-7.083-1.206V0h2.358V-8.406H-7.083Zm-2.25,5.31a2.189,2.189,0,0,1-2.16-2.214A2.168,2.168,0,0,1-9.351-6.426a2.213,2.213,0,0,1,2.2,2.232A2.217,2.217,0,0,1-9.333-1.98ZM.693-3.546l-1.98-4.86H-3.879L-.549-.792l-2,4.914h2.52L5.157-8.406H2.619Zm15.5-5.076a3.176,3.176,0,0,0-2.808,1.656,2.831,2.831,0,0,0-2.7-1.656A2.351,2.351,0,0,0,8.307-6.768V-8.406H5.949V0H8.307V-4.428c0-1.512.864-1.98,1.71-1.98.792,0,1.476.576,1.476,1.908V0h2.358V-4.14c0-1.566.648-2.286,1.656-2.268.828,0,1.512.558,1.512,1.872V0H19.4V-4.608C19.4-7.128,18.3-8.622,16.191-8.622ZM29.529-4.338a4.2,4.2,0,0,0-4.374-4.284,4.321,4.321,0,0,0-4.464,4.428A4.283,4.283,0,0,0,25.173.216,4.7,4.7,0,0,0,28.9-1.476L27.531-2.862a3,3,0,0,1-2.214.99,2.057,2.057,0,0,1-2.16-1.566h6.318C29.511-3.816,29.529-4.1,29.529-4.338Zm-6.372-.63a1.954,1.954,0,0,1,2.052-1.62,1.791,1.791,0,0,1,1.944,1.62ZM35.775-8.622a2.717,2.717,0,0,0-2.52,1.638V-8.406H30.9V0h2.358V-4.41a1.79,1.79,0,0,1,1.89-1.98c.81,0,1.6.594,1.6,1.908V0h2.358V-4.608C39.123-7.128,37.971-8.622,35.775-8.622Zm8.208.216v-3.06H41.625v3.06H40.1V-6.57h1.53V0h2.358V-6.57h1.782V-8.406ZM49.743.216c1.728,0,3.528-.918,3.528-2.682,0-.684-.252-1.944-2.268-2.484l-1.386-.36c-.468-.126-.828-.324-.828-.72,0-.432.432-.738.972-.738a.912.912,0,0,1,1.026.882h2.25c.018-2-1.782-2.736-3.312-2.736-1.944,0-3.294,1.224-3.294,2.52,0,.882.288,2.088,2.448,2.664L50-3.168c.63.162.918.342.918.7,0,.486-.522.828-1.206.828a1.1,1.1,0,0,1-1.242-1.008H46.251C46.269-.792,47.979.216,49.743.216Z" transform="translate(4304 4203)"></path><path id="Path_1076_-_Outline" data-name="Path 1076 - Outline" d="M.307,4.622h-3.6l2.2-5.407L-4.225-7.949V.5H-7.583V0A4.014,4.014,0,0,1-9.855.716a4.584,4.584,0,0,1-4.55-4.91,5.146,5.146,0,0,1,1.281-3.533A4.464,4.464,0,0,1-9.8-9.122a4.033,4.033,0,0,1,2.218.644v-.428H-.951L.687-4.887,2.279-8.906H8.807v.413a3.174,3.174,0,0,1,1.876-.629A3.381,3.381,0,0,1,13.4-7.882a3.775,3.775,0,0,1,2.794-1.24,3.385,3.385,0,0,1,2.786,1.254,5.2,5.2,0,0,1,.918,3.26V.5H16.519V-4.536c0-.626-.176-1.372-1.012-1.372H15.47a.909.909,0,0,0-.78.355,2.4,2.4,0,0,0-.339,1.413V.5H10.993v-5c0-.895-.356-1.408-.976-1.408-.8,0-1.21.5-1.21,1.48V.5H5.449V-7.8Zm-2.111-1H-.361L4.409-7.906H2.959L.7-2.205l-2.323-5.7H-3.115L-.006-.8Zm-8-11.744a3.43,3.43,0,0,0-2.59,1.075A4.1,4.1,0,0,0-13.4-4.194c0,2.3,1.46,3.91,3.55,3.91A2.828,2.828,0,0,0-7.5-1.477l.92-1.425V-.5h1.358V-7.906H-6.583v2.312L-7.5-7.019A2.71,2.71,0,0,0-9.8-8.122ZM17.519-.5H18.9V-4.608c0-1.6-.469-3.514-2.7-3.514a2.691,2.691,0,0,0-2.361,1.38l-.459.918-.44-.927a2.327,2.327,0,0,0-2.248-1.37A1.868,1.868,0,0,0,8.8-6.7l-.995-.072V-7.906H6.449V-.5H7.807V-4.428A2.536,2.536,0,0,1,8.5-6.347a2.148,2.148,0,0,1,1.517-.561c.912,0,1.976.631,1.976,2.408v4h1.358V-4.14a3.306,3.306,0,0,1,.54-2.015,1.9,1.9,0,0,1,1.62-.753,1.877,1.877,0,0,1,1.433.608,2.547,2.547,0,0,1,.575,1.764ZM49.743.716a4.536,4.536,0,0,1-2.7-.835,3.122,3.122,0,0,1-1.293-2.523l0-.5h2.4A3.006,3.006,0,0,1,45.931-6.07H44.483V.5H41.125V-6.07H39.6V-8.906h1.53v-3.06h3.358v3.06h1.782v1.568a3.129,3.129,0,0,1,.77-.9,4.281,4.281,0,0,1,2.69-.885,4.19,4.19,0,0,1,2.981,1.088,2.942,2.942,0,0,1,.831,2.152l0,.5H51.3a2.98,2.98,0,0,1,2.473,2.92A2.867,2.867,0,0,1,52.435-.049,4.845,4.845,0,0,1,49.743.716ZM46.811-2.146a2.143,2.143,0,0,0,.83,1.225,3.583,3.583,0,0,0,2.1.637c1.5,0,3.028-.75,3.028-2.182,0-.991-.638-1.664-1.9-2l-1.382-.359c-.8-.215-1.2-.62-1.2-1.2a1.34,1.34,0,0,1,1.472-1.238,1.451,1.451,0,0,1,1.438.882h1.293A1.824,1.824,0,0,0,52-7.33a3.242,3.242,0,0,0-2.27-.792c-1.726,0-2.794,1.049-2.794,2.02,0,.757.235,1.688,2.072,2.179l1.117.27c.42.108,1.293.333,1.293,1.186,0,.769-.717,1.328-1.706,1.328A1.67,1.67,0,0,1,48.06-2.146ZM42.125-.5h1.358V-7.07h1.782v-.836H43.483v-3.06H42.125v3.06H40.6v.836h1.53Zm6.84-2.4v.257c0,.245.232.508.742.508.416,0,.706-.173.706-.328,0,0,0-.006,0-.008a1.35,1.35,0,0,0-.539-.209Zm.8-3.365c-.278,0-.472.125-.472.238,0,.068.184.163.458.237l.54.14v-.233C50.287-6.231,49.919-6.268,49.761-6.268ZM25.173.716a4.784,4.784,0,0,1-4.982-4.91,4.862,4.862,0,0,1,1.492-3.6,5.034,5.034,0,0,1,3.472-1.33A4.957,4.957,0,0,1,28.59-7.808a4.71,4.71,0,0,1,1.439,3.47c0,.243-.018.544-.056.947l-.043.453H28.159l1.4,1.417-.257.344A5.175,5.175,0,0,1,25.173.716Zm-.018-8.838a3.82,3.82,0,0,0-3.964,3.928,3.776,3.776,0,0,0,3.982,3.91,4.394,4.394,0,0,0,3.046-1.169l-.7-.707a3.514,3.514,0,0,1-2.2.788,2.549,2.549,0,0,1-2.645-1.943l-.159-.623h6.5c.01-.155.015-.286.015-.4A3.7,3.7,0,0,0,25.155-8.122Zm-1.21,5.184a1.684,1.684,0,0,0,1.372.566,2.537,2.537,0,0,0,1.574-.566ZM39.6.5H36.247V-4.482c0-1.038-.569-1.408-1.1-1.408a1.3,1.3,0,0,0-1.39,1.48V.5H30.4V-8.906h3.358v.456a3.668,3.668,0,0,1,2.02-.672,3.6,3.6,0,0,1,2.666,1A4.755,4.755,0,0,1,39.6-4.6Zm-2.358-1H38.6V-4.608a3.874,3.874,0,0,0-.874-2.8,2.645,2.645,0,0,0-1.956-.709,2.23,2.23,0,0,0-2.043,1.289l-.977-.151v-.922H31.4V-.5h1.358V-4.41a2.284,2.284,0,0,1,2.39-2.48,2.164,2.164,0,0,1,2.1,2.408Zm-57.6,1h-3.5V-12.9H-18.3a4.419,4.419,0,0,1,3.455,1.434,4.716,4.716,0,0,1,1.1,3.116A4.3,4.3,0,0,1-18.3-3.838h-2.056Zm-2.5-1h1.5V-4.838H-18.3a3.43,3.43,0,0,0,2.7-1.075,3.661,3.661,0,0,0,.847-2.439A3.335,3.335,0,0,0-18.3-11.9h-4.558ZM-27.01.5h-3.705l-1.008-2.97h-3.925L-36.639.5h-3.745l5-13.4h3.395ZM-30-.5h1.551l-4.236-11.4H-34.69L-38.943-.5h1.583l.99-2.97h5.363ZM-42.154.5h-2.992l-4.065-13.4h3.648l1.9,6.972,1.9-6.972h3.666Zm-2.25-1H-42.9l3.459-11.4h-1.554l-2.668,9.768L-46.327-11.9h-1.536Zm-5.019,1h-3.5V-12.9h3.5Zm-2.5-1h1.5V-11.9h-1.5Zm42.592-.98a2.69,2.69,0,0,1-2.66-2.714A2.66,2.66,0,0,1-9.351-6.926a2.717,2.717,0,0,1,2.7,2.732,2.711,2.711,0,0,1-.787,1.91A2.639,2.639,0,0,1-9.333-1.48Zm-.018-4.446a1.671,1.671,0,0,0-1.642,1.732A1.69,1.69,0,0,0-9.333-2.48,1.719,1.719,0,0,0-7.655-4.194,1.716,1.716,0,0,0-9.351-5.926ZM27.691-4.468H22.534l.135-.608a2.455,2.455,0,0,1,2.54-2.012A2.289,2.289,0,0,1,27.652-5Zm-3.8-1h2.6a1.422,1.422,0,0,0-1.281-.62A1.5,1.5,0,0,0,23.894-5.468Zm-55.3.82h-4.56l2.28-6.763Zm-3.168-1H-32.8l-.888-2.633Zm16.152-.386h-2.93v-4.654h2.966a2.127,2.127,0,0,1,2.12,2.336A2.13,2.13,0,0,1-18.423-6.034Zm-1.93-1h1.93a1.158,1.158,0,0,0,1.156-1.318c0-.4-.109-1.336-1.12-1.336h-1.966Z" transform="translate(4304 4203)" fill="rgba(0,0,0,0)"></path><path id="Path_1077" data-name="Path 1077" d="M-34.857-8.622a3.376,3.376,0,0,0-2.7,1.242V-8.406h-2.358V4.122h2.358V-1.044a3.339,3.339,0,0,0,2.7,1.26,4.187,4.187,0,0,0,4.122-4.428A4.193,4.193,0,0,0-34.857-8.622Zm-.45,6.642a2.228,2.228,0,0,1-2.178-2.214,2.209,2.209,0,0,1,2.178-2.232,2.194,2.194,0,0,1,2.16,2.232A2.178,2.178,0,0,1-35.307-1.98Zm14.328-2.358a4.2,4.2,0,0,0-4.374-4.284,4.321,4.321,0,0,0-4.464,4.428A4.283,4.283,0,0,0-25.335.216a4.7,4.7,0,0,0,3.726-1.692l-1.368-1.386a3,3,0,0,1-2.214.99,2.057,2.057,0,0,1-2.16-1.566h6.318C-21-3.816-20.979-4.1-20.979-4.338Zm-6.372-.63A1.954,1.954,0,0,1-25.3-6.588a1.791,1.791,0,0,1,1.944,1.62Zm12.546-3.654a2.582,2.582,0,0,0-2.466,2.016v-1.8h-2.34V0h2.358V-2.88c0-2.394.828-3.528,2.034-3.528a2.447,2.447,0,0,1,1.206.306l.54-2.25A2.993,2.993,0,0,0-14.805-8.622Zm15.75,0A3.176,3.176,0,0,0-1.863-6.966a2.831,2.831,0,0,0-2.7-1.656A2.351,2.351,0,0,0-6.939-6.768V-8.406H-9.3V0h2.358V-4.428c0-1.512.864-1.98,1.71-1.98.792,0,1.476.576,1.476,1.908V0H-1.4V-4.14c0-1.566.648-2.286,1.656-2.268.828,0,1.512.558,1.512,1.872V0H4.149V-4.608C4.149-7.128,3.051-8.622.945-8.622Zm9,8.838a4.394,4.394,0,0,0,4.518-4.41A4.4,4.4,0,0,0,9.945-8.622,4.4,4.4,0,0,0,5.427-4.194,4.394,4.394,0,0,0,9.945.216Zm0-2.2A2.127,2.127,0,0,1,7.821-4.194,2.132,2.132,0,0,1,9.945-6.426a2.132,2.132,0,0,1,2.124,2.232A2.127,2.127,0,0,1,9.945-1.98Zm10.8-6.642a2.717,2.717,0,0,0-2.52,1.638V-8.406H15.867V0h2.358V-4.41a1.79,1.79,0,0,1,1.89-1.98c.81,0,1.6.594,1.6,1.908V0h2.358V-4.608C24.093-7.128,22.941-8.622,20.745-8.622Zm8.208.216v-3.06H26.595v3.06h-1.53V-6.57h1.53V0h2.358V-6.57h1.782V-8.406Zm7.74-.216a2.735,2.735,0,0,0-2.52,1.548v-5.9H31.815V0h2.358V-4.41a1.8,1.8,0,0,1,1.89-1.98c.81,0,1.6.612,1.6,1.926V0h2.358V-4.608C40.041-7.128,38.889-8.622,36.693-8.622Z" transform="translate(4304 4284)" fill="#13580a"></path><path id="Path_1077_-_Outline" data-name="Path 1077 - Outline" d="M31.315-13.478h3.358v5a3.792,3.792,0,0,1,2.02-.64,3.6,3.6,0,0,1,2.666,1A4.755,4.755,0,0,1,40.523-4.6V.5H37.165V-4.464c0-1.053-.594-1.426-1.1-1.426a1.309,1.309,0,0,0-1.39,1.48V.5H31.315Zm2.358,1H32.315V-.5h1.358V-4.41a2.4,2.4,0,0,1,.807-1.941,2.464,2.464,0,0,1,1.583-.539,2.174,2.174,0,0,1,2.1,2.426V-.5h1.358V-4.608a3.874,3.874,0,0,0-.874-2.8,2.645,2.645,0,0,0-1.956-.709,2.243,2.243,0,0,0-2.046,1.206l-.974-.158Zm-7.578.512h3.358v3.06h1.782V-6.07H29.453V.5H26.095V-6.07h-1.53V-8.906h1.53Zm2.358,1H27.095v3.06h-1.53v.836h1.53V-.5h1.358V-7.07h1.782v-.836H28.453Zm-63.31,1.844a4.512,4.512,0,0,1,3.226,1.347,4.89,4.89,0,0,1,1.357,2.893,4.764,4.764,0,0,1,1.449-2.91,5.034,5.034,0,0,1,3.472-1.33,4.957,4.957,0,0,1,3.435,1.314,4.71,4.71,0,0,1,1.439,3.47c0,.243-.018.544-.056.947l-.043.453h-1.771l1.4,1.417-.257.344A5.175,5.175,0,0,1-25.335.716a4.768,4.768,0,0,1-4.941-4.234A4.9,4.9,0,0,1-31.631-.627,4.51,4.51,0,0,1-34.857.716,4.3,4.3,0,0,1-37.057.1V4.622h-3.358V-8.906h3.358v.4A4.341,4.341,0,0,1-34.857-9.122Zm0,8.838a3.517,3.517,0,0,0,2.516-1.047,3.987,3.987,0,0,0,1.106-2.881,3.687,3.687,0,0,0-3.622-3.91,2.9,2.9,0,0,0-2.291,1.029L-38.057-5.8V-7.906h-1.358V3.622h1.358V-2.654l.912,1.327A2.866,2.866,0,0,0-34.857-.284Zm13.363-3.654c.01-.155.015-.286.015-.4a3.7,3.7,0,0,0-3.874-3.784,3.822,3.822,0,0,0-3.964,3.928,3.776,3.776,0,0,0,3.982,3.91,4.394,4.394,0,0,0,3.046-1.169l-.7-.707a3.514,3.514,0,0,1-2.2.788,2.549,2.549,0,0,1-2.645-1.943l-.159-.623Zm-2.123,1h-2.947a1.684,1.684,0,0,0,1.372.566A2.537,2.537,0,0,0-23.617-2.938Zm8.812-6.184a3.481,3.481,0,0,1,1.564.327l.345.181-.782,3.259-.571-.306a1.947,1.947,0,0,0-.97-.247c-1.385,0-1.534,2.118-1.534,3.028V.5h-3.358V-8.906h3.34v.548A2.812,2.812,0,0,1-14.805-9.122Zm.743,1.083a3.133,3.133,0,0,0-.743-.083A2.111,2.111,0,0,0-16.8-6.448l-.974-.158v-1.3h-1.34V-.5h1.358V-2.88A5.625,5.625,0,0,1-17.114-5.8a2.15,2.15,0,0,1,1.9-1.1,2.9,2.9,0,0,1,.856.121Zm9.5-1.083a3.381,3.381,0,0,1,2.714,1.24A3.775,3.775,0,0,1,.945-9.122,3.385,3.385,0,0,1,3.731-7.868a5.2,5.2,0,0,1,.918,3.26V.5H1.273V-4.536c0-.626-.176-1.372-1.012-1.372H.224a.909.909,0,0,0-.78.355A2.4,2.4,0,0,0-.9-4.14V.5H-4.253v-5c0-.895-.356-1.408-.976-1.408-.8,0-1.21.5-1.21,1.48V.5H-9.8V-8.906h3.358v.415q.057-.043.116-.083A3.2,3.2,0,0,1-4.563-9.122Zm2.688,3.3-.44-.927a2.327,2.327,0,0,0-2.248-1.37A1.868,1.868,0,0,0-6.444-6.7l-.995-.072V-7.906H-8.8V-.5h1.358V-4.428a2.536,2.536,0,0,1,.693-1.919,2.148,2.148,0,0,1,1.517-.561c.912,0,1.976.631,1.976,2.408v4H-1.9V-4.14a3.306,3.306,0,0,1,.54-2.015,1.9,1.9,0,0,1,1.62-.753A1.877,1.877,0,0,1,1.7-6.3a2.547,2.547,0,0,1,.575,1.764V-.5H3.649V-4.608c0-1.6-.469-3.514-2.7-3.514a2.691,2.691,0,0,0-2.361,1.38Zm11.82-3.3a5.1,5.1,0,0,1,3.5,1.349,4.827,4.827,0,0,1,1.52,3.579A4.8,4.8,0,0,1,13.442-.631,5.108,5.108,0,0,1,9.945.716a5.108,5.108,0,0,1-3.5-1.347A4.8,4.8,0,0,1,4.927-4.194a4.827,4.827,0,0,1,1.52-3.579A5.1,5.1,0,0,1,9.945-9.122Zm0,8.838a4.112,4.112,0,0,0,2.816-1.079,3.812,3.812,0,0,0,1.2-2.831,3.838,3.838,0,0,0-1.2-2.847A4.1,4.1,0,0,0,9.945-8.122,4.1,4.1,0,0,0,7.129-7.041a3.838,3.838,0,0,0-1.2,2.847,3.812,3.812,0,0,0,1.2,2.831A4.112,4.112,0,0,0,9.945-.284Zm10.8-8.838a3.6,3.6,0,0,1,2.666,1A4.755,4.755,0,0,1,24.575-4.6V.5H21.217V-4.482c0-1.038-.569-1.408-1.1-1.408a1.3,1.3,0,0,0-1.39,1.48V.5H15.367V-8.906h3.358v.456A3.668,3.668,0,0,1,20.745-9.122ZM23.575-.5V-4.608a3.874,3.874,0,0,0-.874-2.8,2.645,2.645,0,0,0-1.956-.709A2.23,2.23,0,0,0,18.7-6.833l-.977-.151v-.922H16.367V-.5h1.358V-4.41a2.284,2.284,0,0,1,2.39-2.48,2.164,2.164,0,0,1,2.1,2.408V-.5ZM-25.3-7.088A2.289,2.289,0,0,1-22.856-5l.039.536h-5.157l.135-.608A2.455,2.455,0,0,1-25.3-7.088Zm1.281,1.62a1.422,1.422,0,0,0-1.281-.62,1.5,1.5,0,0,0-1.315.62ZM-35.307-6.926a2.7,2.7,0,0,1,2.66,2.732,2.723,2.723,0,0,1-.778,1.923,2.621,2.621,0,0,1-1.882.791,2.732,2.732,0,0,1-2.678-2.714A2.708,2.708,0,0,1-35.307-6.926Zm0,4.446a1.67,1.67,0,0,0,1.66-1.714,1.7,1.7,0,0,0-1.66-1.732,1.708,1.708,0,0,0-1.678,1.732A1.72,1.72,0,0,0-35.307-2.48ZM9.945-6.926a2.621,2.621,0,0,1,2.624,2.732A2.745,2.745,0,0,1,11.8-2.251a2.581,2.581,0,0,1-1.857.771,2.581,2.581,0,0,1-1.857-.771,2.745,2.745,0,0,1-.767-1.943A2.621,2.621,0,0,1,9.945-6.926Zm0,4.446a1.634,1.634,0,0,0,1.624-1.714A1.625,1.625,0,0,0,9.945-5.926,1.625,1.625,0,0,0,8.321-4.194,1.634,1.634,0,0,0,9.945-2.48Z" transform="translate(4304 4284)" fill="rgba(0,0,0,0)"></path></g></svg>