<svg xmlns="http://www.w3.org/2000/svg" xmlns:xlink="http://www.w3.org/1999/xlink" width="1280" height="560" viewBox="0 0 1280 560"><defs><radialGradient id="radial-gradient" cx="0.5" cy="0.5" r="0.5" gradientUnits="objectBoundingBox"><stop offset="0" stop-color="#1444a5"></stop><stop offset="1" stop-color="#112d6c"></stop></radialGradient><clipPath id="clip-path"><rect id="Rectangle_141" data-name="Rectangle 141" width="1280" height="560" transform="translate(0 93.641)" fill="url(#radial-gradient)"></rect></clipPath></defs><g id="Group_1757" data-name="Group 1757" transform="translate(0 -109)"><rect id="Rectangle_44" data-name="Rectangle 44" width="1280" height="560" transform="translate(0 109)" fill="url(#radial-gradient)"></rect><g id="Mask_Group_1" data-name="Mask Group 1" transform="translate(0 15.359)" opacity="0.058" clip-path="url(#clip-path)"><g id="Group_1386" data-name="Group 1386" transform="translate(0 54.04)"><g id="Group_1384" data-name="Group 1384"><path id="Path_82" data-name="Path 82" d="M199.5,215.5v47.609L531.185,429.022h95.644Z" transform="translate(-199.5 -215.5)" fill="#cf172c"></path><path id="Path_83" data-name="Path 83" d="M630.075,215.5H239.2L630.075,410.628Z" transform="translate(-95.916 -215.5)" fill="#25346d"></path><path id="Path_84" data-name="Path 84" d="M199.5,333.8V475.907L483.543,333.8Z" transform="translate(-199.5 92.883)" fill="#25346d"></path><path id="Path_85" data-name="Path 85" d="M199.5,235.3V377.408H483.543Z" transform="translate(-199.5 -163.885)" fill="#25346d"></path><path id="Path_86" data-name="Path 86" d="M674.47,333.8H626.828L199.5,547.322h95.643L722.111,333.8Z" transform="translate(-199.5 92.883)" fill="#cf172c"></path><path id="Path_87" data-name="Path 87" d="M239.2,534.027H630.075V338.9Z" transform="translate(-95.916 106.178)" fill="#25346d"></path><path id="Path_88" data-name="Path 88" d="M733.661,215.5V410.628L342.785,215.5H199.5L626.828,429.022H531.185L199.5,263.109v23.8L483.543,429.022H199.5v42.56H776.249V215.5Z" transform="translate(-199.5 -215.5)" fill="#fff"></path><path id="Path_89" data-name="Path 89" d="M760.008,322H199.5v42.56H483.543L199.5,506.668v71.415L626.828,364.56h95.283L295.143,578.082h47.641L733.661,382.955V578.082h42.588V322Z" transform="translate(-199.5 62.123)" fill="#fff"></path><path id="Path_90" data-name="Path 90" d="M776.249,639.3V855.705h63.883V215.5H776.249V471.582H199.5V599.623H776.249V639.3Z" transform="translate(-199.5 -215.5)" fill="#cf172c"></path></g><g id="Group_1385" data-name="Group 1385" transform="translate(1280 640.205) rotate(180)"><path id="Path_82-2" data-name="Path 82" d="M0,0V47.609L331.685,213.522h95.644Z" fill="#cf172c"></path><path id="Path_83-2" data-name="Path 83" d="M390.875,0H0L390.875,195.127Z" transform="translate(143.284)" fill="#25346d"></path><path id="Path_84-2" data-name="Path 84" d="M0,0V142.107L284.043,0Z" transform="translate(0 426.683)" fill="#25346d"></path><path id="Path_85-2" data-name="Path 85" d="M0,0V142.108H284.043Z" transform="translate(0 71.414)" fill="#25346d"></path><path id="Path_86-2" data-name="Path 86" d="M474.97,0H427.328L0,213.522H95.643L522.611,0Z" transform="translate(0 426.683)" fill="#cf172c"></path><path id="Path_87-2" data-name="Path 87" d="M0,195.127H390.875V0Z" transform="translate(143.284 445.078)" fill="#25346d"></path><path id="Path_88-2" data-name="Path 88" d="M534.161,0V195.127L143.285,0H0L427.328,213.522H331.685L0,47.609v23.8L284.043,213.522H0v42.56H576.749V0Z" fill="#fff"></path><path id="Path_89-2" data-name="Path 89" d="M560.508,0H0V42.56H284.043L0,184.668v71.415L427.328,42.56h95.283L95.643,256.082h47.641L534.161,60.955V256.082h42.588V0Z" transform="translate(0 384.123)" fill="#fff"></path><path id="Path_90-2" data-name="Path 90" d="M576.749,423.8V640.205h63.883V0H576.749V256.082H0V384.123H576.749V423.8Z" fill="#cf172c"></path></g></g></g></g></svg>