<?xml version="1.0" encoding="UTF-8"?> <svg xmlns="http://www.w3.org/2000/svg" xmlns:xlink="http://www.w3.org/1999/xlink" version="1.1" id="Layer_1" x="0px" y="0px" viewBox="0 0 375 616" style="enable-background:new 0 0 375 616;" xml:space="preserve"> <style type="text/css"> .st0{clip-path:url(#SVGID_00000139279426465758521700000018011948295630209188_);} .st1{fill:url(#SVGID_00000162327664999411795780000009796985810784588183_);} .st2{opacity:0.12;fill:url(#SVGID_00000142157532137056955060000009209789594017760674_);enable-background:new ;} .st3{opacity:7.000000e-02;fill:url(#SVGID_00000012438983882008870070000017699384260245285288_);enable-background:new ;} .st4{opacity:0.15;fill:url(#SVGID_00000126316560546667185870000002902815232013618621_);enable-background:new ;} .st5{opacity:7.000000e-02;fill:url(#SVGID_00000108310513601756260660000017656471765811263409_);enable-background:new ;} .st6{opacity:0.25;fill:url(#SVGID_00000159458661481501358990000015665009303574254270_);enable-background:new ;} </style> <g> <defs> <rect id="SVGID_1_" width="375" height="616"></rect> </defs> <clipPath id="SVGID_00000178916654365075702190000001009835767094566061_"> <use xlink:href="#SVGID_1_" style="overflow:visible;"></use> </clipPath> <g style="clip-path:url(#SVGID_00000178916654365075702190000001009835767094566061_);"> <g id="Layer_1_00000183951069258109491270000002822610073802017975_"> <linearGradient id="SVGID_00000005960548262446087320000008402499581982283414_" gradientUnits="userSpaceOnUse" x1="-311.8208" y1="1338.344" x2="756.9897" y2="1394.358" gradientTransform="matrix(1 0 0 1 0 -1059)"> <stop offset="0" style="stop-color:#BE1E2D"></stop> <stop offset="0.1" style="stop-color:#A42B43"></stop> <stop offset="0.32" style="stop-color:#73456E"></stop> <stop offset="0.52" style="stop-color:#4D5A90"></stop> <stop offset="0.71" style="stop-color:#3268A8"></stop> <stop offset="0.87" style="stop-color:#2171B6"></stop> <stop offset="1" style="stop-color:#1C75BC"></stop> </linearGradient> <rect x="-296.8" y="-7.6" style="fill:url(#SVGID_00000005960548262446087320000008402499581982283414_);" width="1038.7" height="630"></rect> <linearGradient id="SVGID_00000103958665863525421820000012422119828272869001_" gradientUnits="userSpaceOnUse" x1="-147.3056" y1="1847.8683" x2="514.4796" y2="1251.9954" gradientTransform="matrix(1 0 0 1 0 -1059)"> <stop offset="0" style="stop-color:#26A9E0"></stop> <stop offset="0.16" style="stop-color:#269FD9"></stop> <stop offset="0.42" style="stop-color:#2785C6"></stop> <stop offset="0.76" style="stop-color:#295BA8"></stop> <stop offset="1" style="stop-color:#2B3990"></stop> </linearGradient> <path style="opacity:0.12;fill:url(#SVGID_00000103958665863525421820000012422119828272869001_);enable-background:new ;" d=" M742,450.3c0,0-132.1-213.8-440.4-183.2C117.7,285.4,40.3,417.5-45.2,420.2c-114.4,3.5-184.2-133.5-251.8-131v333.4H741.8 L742,450.3L742,450.3z"></path> <linearGradient id="SVGID_00000134971657168425676270000000690973575660275873_" gradientUnits="userSpaceOnUse" x1="311.6283" y1="1298.2794" x2="555.2341" y2="1776.3834" gradientTransform="matrix(1 0 0 1 0 -1059)"> <stop offset="0" style="stop-color:#26A9E0"></stop> <stop offset="0.14" style="stop-color:#269FD7"></stop> <stop offset="0.37" style="stop-color:#2685BE"></stop> <stop offset="0.66" style="stop-color:#265B97"></stop> <stop offset="1" style="stop-color:#262262"></stop> </linearGradient> <path style="opacity:7.000000e-02;fill:url(#SVGID_00000134971657168425676270000000690973575660275873_);enable-background:new ;" d=" M-12.7,622.5c0,0,77.2-286.4,301.8-286.4c146,0,291.2-22.5,284.2-160.5c-5.1-100.9,157.2-153.8,168.5-111v557.8H-12.7V622.5z"></path> <linearGradient id="SVGID_00000111161275242438638520000005429385901383963044_" gradientUnits="userSpaceOnUse" x1="361.8218" y1="1320.194" x2="586.321" y2="1760.7988" gradientTransform="matrix(1 0 0 1 0 -1059)"> <stop offset="0" style="stop-color:#26A9E0"></stop> <stop offset="0.14" style="stop-color:#269FD7"></stop> <stop offset="0.37" style="stop-color:#2685BE"></stop> <stop offset="0.66" style="stop-color:#265B97"></stop> <stop offset="1" style="stop-color:#262262"></stop> </linearGradient> <path style="opacity:0.15;fill:url(#SVGID_00000111161275242438638520000005429385901383963044_);enable-background:new ;" d=" M89.5,622.5c0,0,69.8-270.5,291.8-235.2c145.5,23.2,246.5-93.8,232-181.5C596.8,105.9,730.6,69.6,742,112.5v510L89.5,622.5 L89.5,622.5z"></path> <linearGradient id="SVGID_00000178201064145354594780000015007881956593452461_" gradientUnits="userSpaceOnUse" x1="-164.5163" y1="1372.4839" x2="426.5337" y2="840.2991" gradientTransform="matrix(1 0 0 1 0 -1059)"> <stop offset="0" style="stop-color:#26A9E0"></stop> <stop offset="0.16" style="stop-color:#269FD9"></stop> <stop offset="0.42" style="stop-color:#2785C6"></stop> <stop offset="0.76" style="stop-color:#295BA8"></stop> <stop offset="1" style="stop-color:#2B3990"></stop> </linearGradient> <path style="opacity:7.000000e-02;fill:url(#SVGID_00000178201064145354594780000015007881956593452461_);enable-background:new ;" d=" M-296.8,166.6c0,0,172.9,122.2,284.2,100.5c127.4-24.8,130.8-182.8,222-186.2c91.4-3.4,155.1,89.1,256,75.7 c52.4-6.9,146.2-84.5,151.2-164.1h-913.5V166.6z"></path> <linearGradient id="SVGID_00000034071140985326945900000005479575459036733352_" gradientUnits="userSpaceOnUse" x1="-124.4289" y1="963.3827" x2="0.6117" y2="1208.7899" gradientTransform="matrix(1 0 0 1 0 -1059)"> <stop offset="0" style="stop-color:#26A9E0"></stop> <stop offset="0.14" style="stop-color:#269FD7"></stop> <stop offset="0.37" style="stop-color:#2685BE"></stop> <stop offset="0.66" style="stop-color:#265B97"></stop> <stop offset="1" style="stop-color:#262262"></stop> </linearGradient> <path style="opacity:0.25;fill:url(#SVGID_00000034071140985326945900000005479575459036733352_);enable-background:new ;" d=" M-296.8,241.1c0,0,154.4,25.3,219.3-73.2S62.1,16.7,117.1,29.2s134.7-3.2,147.2-37h-561V241.1L-296.8,241.1z"></path> </g> </g> </g> </svg> 