<svg xmlns="http://www.w3.org/2000/svg" id="money-helper-logo" width="61.962" height="31.233" viewBox="0 0 61.962 31.233"><path id="Path_517" data-name="Path 517" d="M6.232,41.537l-1.607-1.6L6.6,37.958H4.242A3.985,3.985,0,0,1,0,33.881V30.945H2.423l.005,2.609a1.984,1.984,0,0,0,2.015,2.131H6.6L4.62,33.715l1.607-1.609L9.26,35.133a2.39,2.39,0,0,1,0,3.378Z" transform="translate(0 -15.356)" fill="#fff"></path><g id="Group_1644" data-name="Group 1644"><path id="Path_518" data-name="Path 518" d="M0,0H2.932L6.469,8.46,10.021,0h2.917V12.11H10.509V4.72L7.436,12.11H5.512L2.428,4.72v7.39H0Z" transform="translate(0)" fill="#fff"></path><path id="Path_519" data-name="Path 519" d="M32.738,6.457a4.407,4.407,0,0,0-4.615,4.5,4.407,4.407,0,0,0,4.615,4.5,4.407,4.407,0,0,0,4.615-4.5A4.407,4.407,0,0,0,32.738,6.457Zm-.005,2.061a2.205,2.205,0,0,1,2.186,2.438,2.2,2.2,0,1,1-4.373,0A2.205,2.205,0,0,1,32.732,8.518Z" transform="translate(-13.956 -3.204)" fill="#fff" fill-rule="evenodd"></path><path id="Path_520" data-name="Path 520" d="M48.395,6.586h2.428V7.8a2.929,2.929,0,0,1,2.655-1.352,3.176,3.176,0,0,1,3.26,3.428v5.434H54.309v-4.9A1.674,1.674,0,0,0,52.626,8.6a1.806,1.806,0,0,0-1.8,1.94v4.776H48.395Z" transform="translate(-24.015 -3.198)" fill="#fff"></path><path id="Path_521" data-name="Path 521" d="M71.549,15.455a3.944,3.944,0,0,0,4.161-3.1H73.347c-.191.744-.831,1.126-1.8,1.126a2.1,2.1,0,0,1-2.166-1.991h6.277a7.6,7.6,0,0,0,.035-.779,4.068,4.068,0,0,0-4.318-4.258,4.2,4.2,0,0,0-4.318,4.484,4.377,4.377,0,0,0,4.494,4.514Zm1.733-5.485H69.412a1.944,1.944,0,0,1,3.869,0Z" transform="translate(-33.275 -3.204)" fill="#fff" fill-rule="evenodd"></path><path id="Path_522" data-name="Path 522" d="M90.213,15.413l-1.229,3.564H86.676l1.285-3.6L84.787,6.727h2.464l1.834,5.625,1.824-5.625h2.478Z" transform="translate(-42.075 -3.338)" fill="#fff"></path><path id="Path_523" data-name="Path 523" d="M32.459,30.945V43.06h-2.62V37.988h-5V43.06h-2.6V30.945h2.6v4.811h5V30.945Z" transform="translate(-11.038 -15.356)" fill="#fff"></path><path id="Path_524" data-name="Path 524" d="M49.418,46.4a3.944,3.944,0,0,0,4.161-3.1H51.216c-.191.744-.831,1.126-1.8,1.126a2.1,2.1,0,0,1-2.166-1.991h6.277a7.6,7.6,0,0,0,.035-.779A4.068,4.068,0,0,0,49.241,37.4a4.2,4.2,0,0,0-4.318,4.484A4.377,4.377,0,0,0,49.418,46.4Zm1.733-5.485H47.281a1.826,1.826,0,0,1,1.96-1.749A1.808,1.808,0,0,1,51.15,40.916Z" transform="translate(-22.293 -18.561)" fill="#fff" fill-rule="evenodd"></path><path id="Path_525" data-name="Path 525" d="M64.785,30.156H67.2V42.668H64.785Z" transform="translate(-32.149 -14.965)" fill="#fff"></path><path id="Path_526" data-name="Path 526" d="M75.038,37.543H72.625V49.794h2.408V45.486a2.905,2.905,0,0,0,2.307.915c2.519,0,4.217-1.785,4.217-4.5S80,37.4,77.552,37.4a3.054,3.054,0,0,0-2.514,1.091Zm2.015,1.925a2.174,2.174,0,0,1,2.131,2.438,2.157,2.157,0,1,1-4.282,0A2.172,2.172,0,0,1,77.053,39.468Z" transform="translate(-36.04 -18.561)" fill="#fff" fill-rule="evenodd"></path><path id="Path_527" data-name="Path 527" d="M96.582,46.4a3.944,3.944,0,0,0,4.161-3.1H98.38c-.191.744-.831,1.126-1.8,1.126a2.1,2.1,0,0,1-2.167-1.991h6.277a7.6,7.6,0,0,0,.035-.779A4.068,4.068,0,0,0,96.406,37.4a4.2,4.2,0,0,0-4.318,4.484A4.377,4.377,0,0,0,96.582,46.4Zm1.732-5.485H94.445a1.944,1.944,0,0,1,3.869,0Z" transform="translate(-45.698 -18.561)" fill="#fff" fill-rule="evenodd"></path><path id="Path_528" data-name="Path 528" d="M116.041,39.685c-1.2,0-1.733.985-1.733,2.473V46.4h-2.428V37.68h2.428v1.453a2.09,2.09,0,0,1,2.187-1.453h.987v2.006Z" transform="translate(-55.519 -18.698)" fill="#fff"></path></g></svg>