<?xml version="1.0" encoding="UTF-8"?> <svg xmlns="http://www.w3.org/2000/svg" width="81.642" height="37.019" viewBox="0 0 81.642 37.019"><g id="Group_2018" data-name="Group 2018" transform="translate(-360.253 -435)"><g id="Group_1265" data-name="Group 1265" transform="translate(360.253 456.701)"><rect id="Rectangle_63" data-name="Rectangle 63" width="15.314" height="15.314" transform="translate(0 0.003)" fill="#32aa71"></rect><rect id="Rectangle_64" data-name="Rectangle 64" width="15.314" height="15.314" transform="translate(16.591 0.003)" fill="#32aa71"></rect><rect id="Rectangle_65" data-name="Rectangle 65" width="15.314" height="15.314" transform="translate(33.181 0.003)" fill="#32aa71"></rect><rect id="Rectangle_66" data-name="Rectangle 66" width="15.314" height="15.314" transform="translate(49.772 0.003)" fill="#32aa71"></rect><rect id="Rectangle_67" data-name="Rectangle 67" width="15.302" height="15.302" transform="translate(66.341 0)" fill="#32aa71"></rect><g id="Group_1260" data-name="Group 1260" transform="translate(2.297 2.587)"><path id="Path_436" data-name="Path 436" d="M19.76,23.934,22.1,23.34l.976,3.005Zm5.36-3.867h-4.1L19.76,16.2,18.5,20.067H14.4l3.312,2.393-1.263,3.867,3.312-2.393,2.048-1.474,3.312-2.393Z" transform="translate(-14.4 -16.2)" fill="#fff"></path></g><g id="Group_1261" data-name="Group 1261" transform="translate(18.888 2.587)"><path id="Path_437" data-name="Path 437" d="M123.76,23.934l2.335-.593.976,3.005Zm5.36-3.867h-4.1L123.76,16.2,122.5,20.067h-4.1l3.312,2.393-1.263,3.867,3.312-2.393,2.048-1.474,3.312-2.393Z" transform="translate(-118.4 -16.2)" fill="#fff"></path></g><g id="Group_1262" data-name="Group 1262" transform="translate(35.478 2.587)"><path id="Path_438" data-name="Path 438" d="M227.76,23.934l2.335-.593.976,3.005Zm5.36-3.867h-4.1L227.76,16.2,226.5,20.067h-4.1l3.312,2.393-1.263,3.867,3.312-2.393,2.048-1.474,3.312-2.393Z" transform="translate(-222.4 -16.2)" fill="#fff"></path></g><g id="Group_1263" data-name="Group 1263" transform="translate(52.069 2.587)"><path id="Path_439" data-name="Path 439" d="M331.76,23.934l2.335-.593.976,3.005Zm5.36-3.867h-4.1L331.76,16.2,330.5,20.067h-4.1l3.312,2.393-1.263,3.867,3.312-2.393,2.048-1.474,3.312-2.393Z" transform="translate(-326.4 -16.2)" fill="#fff"></path></g><g id="Group_1264" data-name="Group 1264" transform="translate(68.66 2.587)"><path id="Path_440" data-name="Path 440" d="M435.76,23.934l2.335-.593.976,3.005Zm5.36-3.867h-4.1L435.76,16.2,434.5,20.067h-4.1l3.312,2.393-1.263,3.867,3.312-2.393,2.048-1.474,3.312-2.393Z" transform="translate(-430.4 -16.2)" fill="#fff"></path></g></g><g id="Group_1434" data-name="Group 1434" transform="translate(360.625 435)"><g id="Type" transform="translate(19.378 6.416)"><path id="Path_441" data-name="Path 441" d="M297.742,98.58h7.467v1.4h-2.933V107.8h-1.615V99.975h-2.92Zm7.144,2.545h1.382v1.292h.026a1.487,1.487,0,0,1,.252-.53,2.451,2.451,0,0,1,.452-.472,2.281,2.281,0,0,1,.588-.342,1.761,1.761,0,0,1,.659-.129,3.237,3.237,0,0,1,.355.013l.2.026V102.4q-.155-.026-.317-.045a2.664,2.664,0,0,0-.316-.019,1.7,1.7,0,0,0-.7.149,1.618,1.618,0,0,0-.575.439,2.149,2.149,0,0,0-.388.717,3.1,3.1,0,0,0-.142.982V107.8h-1.473Zm10.673,6.679h-1.447v-.93h-.026a2.023,2.023,0,0,1-.807.807,2.193,2.193,0,0,1-1.092.3,2.452,2.452,0,0,1-1.906-.652,2.864,2.864,0,0,1-.588-1.97v-4.237h1.473v4.1a1.81,1.81,0,0,0,.336,1.24,1.223,1.223,0,0,0,.943.362,1.858,1.858,0,0,0,.775-.142,1.368,1.368,0,0,0,.5-.381,1.462,1.462,0,0,0,.278-.575,2.982,2.982,0,0,0,.084-.723v-3.876h1.473Zm2.506-2.145a1.109,1.109,0,0,0,.491.9,1.93,1.93,0,0,0,1.02.258,3.929,3.929,0,0,0,.472-.032,2.044,2.044,0,0,0,.5-.123.935.935,0,0,0,.381-.265.638.638,0,0,0,.136-.459.651.651,0,0,0-.207-.465,1.435,1.435,0,0,0-.5-.291,4.845,4.845,0,0,0-.691-.187q-.388-.078-.788-.168a7.344,7.344,0,0,1-.795-.22,2.554,2.554,0,0,1-.685-.349,1.611,1.611,0,0,1-.484-.562,1.793,1.793,0,0,1-.181-.846,1.519,1.519,0,0,1,.265-.911,2.03,2.03,0,0,1,.672-.594,2.932,2.932,0,0,1,.9-.317,5.324,5.324,0,0,1,.949-.09,4.356,4.356,0,0,1,.988.11,2.693,2.693,0,0,1,.853.355,2.089,2.089,0,0,1,.633.639,2.215,2.215,0,0,1,.316.95h-1.537a.918.918,0,0,0-.484-.711,2.012,2.012,0,0,0-.872-.181,3.144,3.144,0,0,0-.368.026,1.715,1.715,0,0,0-.4.1.841.841,0,0,0-.316.207.494.494,0,0,0-.129.355.561.561,0,0,0,.187.439,1.477,1.477,0,0,0,.491.278,4.81,4.81,0,0,0,.691.187q.388.078.8.168t.788.22a2.546,2.546,0,0,1,.691.349,1.7,1.7,0,0,1,.491.556,1.68,1.68,0,0,1,.187.827,1.8,1.8,0,0,1-.271,1.008,2.141,2.141,0,0,1-.7.672,3.2,3.2,0,0,1-.962.375,4.87,4.87,0,0,1-1.046.116,4.555,4.555,0,0,1-1.169-.142,2.722,2.722,0,0,1-.93-.433,2.085,2.085,0,0,1-.62-.723,2.3,2.3,0,0,1-.239-1.027Zm4.857-4.535h1.111v-2h1.473v2h1.331v1.1h-1.331v3.566a3.535,3.535,0,0,0,.019.4.689.689,0,0,0,.09.284.43.43,0,0,0,.213.174,1.047,1.047,0,0,0,.387.058q.155,0,.31-.007a1.538,1.538,0,0,0,.31-.045v1.137l-.478.052a4.354,4.354,0,0,1-.478.026,3.264,3.264,0,0,1-.937-.11,1.249,1.249,0,0,1-.556-.323,1.111,1.111,0,0,1-.271-.536,4,4,0,0,1-.084-.736v-3.94h-1.111Zm4.948,0h1.4v.9h.026a1.82,1.82,0,0,1,.866-.833,2.873,2.873,0,0,1,1.2-.252,3.192,3.192,0,0,1,1.376.278,2.715,2.715,0,0,1,.975.762,3.312,3.312,0,0,1,.581,1.13,4.786,4.786,0,0,1,.194,1.382,4.891,4.891,0,0,1-.174,1.3,3.4,3.4,0,0,1-.53,1.118,2.581,2.581,0,0,1-2.177,1.066,3.642,3.642,0,0,1-.646-.058,2.8,2.8,0,0,1-.62-.187,2.435,2.435,0,0,1-.549-.329,1.822,1.822,0,0,1-.42-.472h-.026v3.333H327.87Zm5.142,3.346a3.323,3.323,0,0,0-.116-.878,2.387,2.387,0,0,0-.349-.756,1.8,1.8,0,0,0-.581-.53,1.581,1.581,0,0,0-.8-.2,1.624,1.624,0,0,0-1.4.646,2.851,2.851,0,0,0-.471,1.718,3.415,3.415,0,0,0,.123.937,2.1,2.1,0,0,0,.368.743,1.835,1.835,0,0,0,.588.491,1.674,1.674,0,0,0,.795.181,1.645,1.645,0,0,0,.853-.207,1.8,1.8,0,0,0,.575-.536,2.178,2.178,0,0,0,.323-.749A3.8,3.8,0,0,0,333.012,104.471Zm2.6-5.891h1.473v1.4h-1.473Zm0,2.545h1.473V107.8h-1.473ZM338.4,98.58h1.473V107.8H338.4Zm5.981,9.4a3.639,3.639,0,0,1-1.428-.265,3.041,3.041,0,0,1-1.059-.73,3.117,3.117,0,0,1-.659-1.111,4.538,4.538,0,0,1,0-2.829,3.119,3.119,0,0,1,.659-1.111,3.045,3.045,0,0,1,1.059-.73,3.98,3.98,0,0,1,2.855,0,3.049,3.049,0,0,1,1.059.73,3.127,3.127,0,0,1,.659,1.111,4.54,4.54,0,0,1,0,2.829,3.125,3.125,0,0,1-.659,1.111,3.045,3.045,0,0,1-1.059.73A3.64,3.64,0,0,1,344.379,107.985Zm0-1.163a1.689,1.689,0,0,0,.853-.207,1.794,1.794,0,0,0,.594-.543,2.365,2.365,0,0,0,.342-.756,3.388,3.388,0,0,0,0-1.712,2.285,2.285,0,0,0-.342-.756,1.826,1.826,0,0,0-.594-.536,1.862,1.862,0,0,0-1.705,0,1.826,1.826,0,0,0-.594.536,2.287,2.287,0,0,0-.342.756,3.392,3.392,0,0,0,0,1.712,2.367,2.367,0,0,0,.342.756,1.794,1.794,0,0,0,.594.543A1.689,1.689,0,0,0,344.379,106.822Zm3.8-5.7h1.111v-2h1.473v2h1.331v1.1h-1.331v3.566a3.555,3.555,0,0,0,.019.4.689.689,0,0,0,.09.284.431.431,0,0,0,.213.174,1.048,1.048,0,0,0,.387.058q.155,0,.31-.007a1.538,1.538,0,0,0,.31-.045v1.137l-.478.052a4.357,4.357,0,0,1-.478.026,3.263,3.263,0,0,1-.937-.11,1.247,1.247,0,0,1-.556-.323,1.111,1.111,0,0,1-.271-.536,4,4,0,0,1-.084-.736v-3.94h-1.111Z" transform="translate(-297.742 -98.58)" fill="#3b3b3b"></path></g><g id="Star" transform="translate(0)"><path id="Path_442" data-name="Path 442" d="M17.658,6.416H10.913L8.829,0,6.745,6.414H0l5.457,3.966L3.373,16.794,8.83,12.83l5.455,3.964L12.2,10.38l5.457-3.965h0Z" fill="#54c383"></path><path id="Path_443" data-name="Path 443" d="M139.516,160.951l-.472-1.454-3.371,2.449Z" transform="translate(-126.843 -149.116)" fill="#184625"></path></g></g></g></svg> 