<svg xmlns="http://www.w3.org/2000/svg" width="210.092" height="23.258" viewBox="0 0 210.092 23.258"><g id="Group_568" data-name="Group 568" transform="translate(-82.908 -669.742)"><g id="Trustpilot_ratings_5star-RGB" transform="translate(184 673)"><g id="Group_566" data-name="Group 566"><g id="Group_565" data-name="Group 565"><rect id="Rectangle-path" width="20" height="20" fill="#00b67a"></rect><rect id="Rectangle-path-2" data-name="Rectangle-path" width="21" height="20" transform="translate(22)" fill="#00b67a"></rect><rect id="Rectangle-path-3" data-name="Rectangle-path" width="21" height="20" transform="translate(44)" fill="#00b67a"></rect><rect id="Rectangle-path-4" data-name="Rectangle-path" width="21" height="20" transform="translate(66)" fill="#00b67a"></rect><rect id="Rectangle-path-5" data-name="Rectangle-path" width="20" height="20" transform="translate(89)" fill="#00b67a"></rect><path id="Shape" d="M21.553,26.525l3.108-.788,1.3,4Zm7.153-5.173H23.235L21.553,16.2l-1.682,5.152H14.4l4.428,3.193L17.146,29.7,21.574,26.5,24.3,24.545l4.407-3.193Z" transform="translate(-11.334 -12.751)" fill="#fff"></path><path id="Shape-2" data-name="Shape" d="M125.553,26.525l3.108-.788,1.3,4Zm7.153-5.173h-5.471L125.553,16.2l-1.682,5.152H118.4l4.428,3.193L121.146,29.7l4.428-3.193,2.725-1.959,4.407-3.193Z" transform="translate(-93.194 -12.751)" fill="#fff"></path><path id="Shape-3" data-name="Shape" d="M229.553,26.525l3.108-.788,1.3,4Zm7.153-5.173h-5.471L229.553,16.2l-1.682,5.152H222.4l4.428,3.193L225.146,29.7l4.428-3.193,2.725-1.959,4.407-3.193Z" transform="translate(-175.053 -12.751)" fill="#fff"></path><path id="Shape-4" data-name="Shape" d="M333.553,26.525l3.108-.788,1.3,4Zm7.153-5.173h-5.471L333.553,16.2l-1.682,5.152H326.4l4.428,3.193L329.146,29.7l4.428-3.193,2.725-1.959,4.407-3.193Z" transform="translate(-256.913 -12.751)" fill="#fff"></path><path id="Shape-5" data-name="Shape" d="M437.553,26.525l3.108-.788,1.3,4Zm7.153-5.173h-5.471L437.553,16.2l-1.682,5.152H430.4l4.428,3.193L433.146,29.7l4.428-3.193,2.725-1.959,4.407-3.193Z" transform="translate(-338.772 -12.751)" fill="#fff"></path></g></g></g><g id="Group_567" data-name="Group 567" transform="translate(82.908 669.742)"><path id="Path_238" data-name="Path 238" d="M297.742,98.58h9.3v1.739h-3.654v9.756H301.38v-9.756h-3.638Zm8.9,3.171h1.722v1.61h.032a1.855,1.855,0,0,1,.314-.66,3.059,3.059,0,0,1,.564-.588,2.843,2.843,0,0,1,.732-.427,2.195,2.195,0,0,1,.821-.161,4.035,4.035,0,0,1,.443.016l.25.032v1.771q-.193-.032-.394-.056a3.317,3.317,0,0,0-.394-.024,2.112,2.112,0,0,0-.877.185,2.016,2.016,0,0,0-.716.547,2.678,2.678,0,0,0-.483.893,3.863,3.863,0,0,0-.177,1.223v3.96h-1.835Zm13.3,8.323h-1.8v-1.159h-.032a2.521,2.521,0,0,1-1.006,1.006,2.733,2.733,0,0,1-1.36.378,3.055,3.055,0,0,1-2.375-.813,3.57,3.57,0,0,1-.732-2.455v-5.28h1.835v5.1a2.255,2.255,0,0,0,.419,1.545,1.523,1.523,0,0,0,1.175.451,2.315,2.315,0,0,0,.966-.177,1.7,1.7,0,0,0,.628-.475,1.821,1.821,0,0,0,.346-.716,3.712,3.712,0,0,0,.1-.9v-4.829h1.835Zm3.123-2.672a1.382,1.382,0,0,0,.612,1.127,2.4,2.4,0,0,0,1.272.322,4.893,4.893,0,0,0,.588-.04,2.546,2.546,0,0,0,.62-.153,1.165,1.165,0,0,0,.475-.33.794.794,0,0,0,.169-.572.811.811,0,0,0-.257-.579,1.79,1.79,0,0,0-.62-.362,6.034,6.034,0,0,0-.861-.233q-.483-.1-.982-.209a9.159,9.159,0,0,1-.99-.274,3.183,3.183,0,0,1-.853-.435,2.006,2.006,0,0,1-.6-.7,2.235,2.235,0,0,1-.225-1.054,1.893,1.893,0,0,1,.33-1.135,2.529,2.529,0,0,1,.837-.74,3.653,3.653,0,0,1,1.127-.394,6.635,6.635,0,0,1,1.183-.113,5.429,5.429,0,0,1,1.232.137,3.355,3.355,0,0,1,1.063.443,2.6,2.6,0,0,1,.789.8,2.761,2.761,0,0,1,.394,1.183h-1.916a1.144,1.144,0,0,0-.6-.885,2.507,2.507,0,0,0-1.087-.225,3.92,3.92,0,0,0-.459.032,2.138,2.138,0,0,0-.5.121,1.048,1.048,0,0,0-.394.257.615.615,0,0,0-.161.443.7.7,0,0,0,.233.547,1.841,1.841,0,0,0,.612.346,5.99,5.99,0,0,0,.861.233q.483.1,1,.209.5.113.982.274a3.173,3.173,0,0,1,.861.435,2.116,2.116,0,0,1,.612.692,2.092,2.092,0,0,1,.233,1.03,2.237,2.237,0,0,1-.338,1.256,2.669,2.669,0,0,1-.877.837,3.987,3.987,0,0,1-1.2.467,6.07,6.07,0,0,1-1.3.145,5.676,5.676,0,0,1-1.457-.177,3.391,3.391,0,0,1-1.159-.539,2.6,2.6,0,0,1-.773-.9,2.863,2.863,0,0,1-.3-1.28Zm6.053-5.65H330.5v-2.5h1.835v2.5H334v1.368h-1.658v4.443a4.419,4.419,0,0,0,.024.5.859.859,0,0,0,.113.354.537.537,0,0,0,.266.217,1.305,1.305,0,0,0,.483.072q.193,0,.386-.008a1.918,1.918,0,0,0,.386-.056v1.417l-.6.064a5.425,5.425,0,0,1-.6.032,4.067,4.067,0,0,1-1.167-.137,1.555,1.555,0,0,1-.692-.4,1.384,1.384,0,0,1-.338-.668,5,5,0,0,1-.1-.918v-4.91h-1.385Zm6.166,0h1.739v1.127h.032a2.268,2.268,0,0,1,1.079-1.038,3.58,3.58,0,0,1,1.5-.314,3.977,3.977,0,0,1,1.714.346,3.383,3.383,0,0,1,1.215.95,4.127,4.127,0,0,1,.724,1.409,5.967,5.967,0,0,1,.242,1.723,6.092,6.092,0,0,1-.217,1.626,4.231,4.231,0,0,1-.66,1.393,3.217,3.217,0,0,1-2.713,1.328,4.536,4.536,0,0,1-.8-.072,3.484,3.484,0,0,1-.773-.233,3.033,3.033,0,0,1-.684-.411,2.273,2.273,0,0,1-.523-.588h-.032v4.153h-1.835Zm6.407,4.169a4.142,4.142,0,0,0-.145-1.095,2.975,2.975,0,0,0-.435-.942,2.246,2.246,0,0,0-.724-.66,1.97,1.97,0,0,0-1-.249,2.024,2.024,0,0,0-1.747.8,3.552,3.552,0,0,0-.588,2.141,4.256,4.256,0,0,0,.153,1.167,2.62,2.62,0,0,0,.459.926,2.286,2.286,0,0,0,.732.612,2.086,2.086,0,0,0,.99.225,2.05,2.05,0,0,0,1.063-.258,2.247,2.247,0,0,0,.716-.668,2.714,2.714,0,0,0,.4-.934A4.741,4.741,0,0,0,341.692,105.921Zm3.236-7.341h1.835v1.739h-1.835Zm0,3.171h1.835v8.323h-1.835ZM348.4,98.58h1.835v11.494H348.4Zm7.453,11.72a4.534,4.534,0,0,1-1.779-.33,3.789,3.789,0,0,1-1.32-.91,3.883,3.883,0,0,1-.821-1.384,5.655,5.655,0,0,1,0-3.526,3.885,3.885,0,0,1,.821-1.384,3.793,3.793,0,0,1,1.32-.91,4.96,4.96,0,0,1,3.558,0,3.8,3.8,0,0,1,1.32.91,3.9,3.9,0,0,1,.821,1.384,5.657,5.657,0,0,1,0,3.526,3.894,3.894,0,0,1-.821,1.384,3.8,3.8,0,0,1-1.32.91A4.535,4.535,0,0,1,355.857,110.3Zm0-1.449a2.105,2.105,0,0,0,1.063-.258,2.236,2.236,0,0,0,.741-.676,2.949,2.949,0,0,0,.427-.942,4.223,4.223,0,0,0,0-2.133,2.85,2.85,0,0,0-.427-.942,2.277,2.277,0,0,0-.741-.668,2.32,2.32,0,0,0-2.125,0,2.274,2.274,0,0,0-.741.668,2.847,2.847,0,0,0-.427.942,4.225,4.225,0,0,0,0,2.133,2.946,2.946,0,0,0,.427.942,2.234,2.234,0,0,0,.741.676A2.1,2.1,0,0,0,355.857,108.851Zm4.733-7.1h1.385v-2.5h1.835v2.5h1.658v1.368h-1.658v4.443a4.441,4.441,0,0,0,.024.5.86.86,0,0,0,.113.354.537.537,0,0,0,.266.217,1.305,1.305,0,0,0,.483.072q.193,0,.386-.008a1.918,1.918,0,0,0,.386-.056v1.417l-.6.064a5.426,5.426,0,0,1-.6.032,4.067,4.067,0,0,1-1.167-.137,1.554,1.554,0,0,1-.692-.4,1.384,1.384,0,0,1-.338-.668,4.991,4.991,0,0,1-.1-.918v-4.91h-1.385Z" transform="translate(-273.595 -90.585)" fill="#fff"></path><path id="Path_239" data-name="Path 239" d="M22,7.995H13.6L11,0l-2.6,7.993H0l6.8,4.942L4.2,20.928l6.8-4.94,6.8,4.94-2.6-7.992L22,7.995h0Z" fill="#54c383"></path><path id="Path_240" data-name="Path 240" d="M140.462,161.308l-.589-1.812-4.2,3.052Z" transform="translate(-124.669 -146.561)" fill="#184625"></path></g></g></svg>