<?xml version="1.0" encoding="UTF-8"?> <svg xmlns="http://www.w3.org/2000/svg" width="194.988" height="20" viewBox="0 0 194.988 20"><g id="Group_1337" data-name="Group 1337" transform="translate(-98.012 -673)"><g id="Trustpilot_ratings_5star-RGB" transform="translate(184 673)"><g id="Group_566" data-name="Group 566"><g id="Group_565" data-name="Group 565"><rect id="Rectangle-path" width="20" height="20" fill="#00b67a"></rect><rect id="Rectangle-path-2" data-name="Rectangle-path" width="21" height="20" transform="translate(22)" fill="#00b67a"></rect><rect id="Rectangle-path-3" data-name="Rectangle-path" width="21" height="20" transform="translate(44)" fill="#00b67a"></rect><rect id="Rectangle-path-4" data-name="Rectangle-path" width="21" height="20" transform="translate(66)" fill="#00b67a"></rect><rect id="Rectangle-path-5" data-name="Rectangle-path" width="20" height="20" transform="translate(89)" fill="#00b67a"></rect><path id="Shape" d="M21.553,26.525l3.108-.788,1.3,4Zm7.153-5.173H23.235L21.553,16.2l-1.682,5.152H14.4l4.428,3.193L17.146,29.7,21.574,26.5,24.3,24.545l4.407-3.193Z" transform="translate(-11.334 -12.751)" fill="#fff"></path><path id="Shape-2" data-name="Shape" d="M125.553,26.525l3.108-.788,1.3,4Zm7.153-5.173h-5.471L125.553,16.2l-1.682,5.152H118.4l4.428,3.193L121.146,29.7l4.428-3.193,2.725-1.959,4.407-3.193Z" transform="translate(-93.194 -12.751)" fill="#fff"></path><path id="Shape-3" data-name="Shape" d="M229.553,26.525l3.108-.788,1.3,4Zm7.153-5.173h-5.471L229.553,16.2l-1.682,5.152H222.4l4.428,3.193L225.146,29.7l4.428-3.193,2.725-1.959,4.407-3.193Z" transform="translate(-175.053 -12.751)" fill="#fff"></path><path id="Shape-4" data-name="Shape" d="M333.553,26.525l3.108-.788,1.3,4Zm7.153-5.173h-5.471L333.553,16.2l-1.682,5.152H326.4l4.428,3.193L329.146,29.7l4.428-3.193,2.725-1.959,4.407-3.193Z" transform="translate(-256.913 -12.751)" fill="#fff"></path><path id="Shape-5" data-name="Shape" d="M437.553,26.525l3.108-.788,1.3,4Zm7.153-5.173h-5.471L437.553,16.2l-1.682,5.152H430.4l4.428,3.193L433.146,29.7l4.428-3.193,2.725-1.959,4.407-3.193Z" transform="translate(-338.772 -12.751)" fill="#fff"></path></g></g></g><path id="Path_1031" data-name="Path 1031" d="M4.014,13.014H8.64v-2.25H4.014V7.812H9.288V5.6H1.512V18H9.45V15.786H4.014Zm12.33.432,2.772-3.852H16.344l-1.3,1.944L13.716,9.594h-2.79L13.7,13.446,10.368,18H13.14l1.89-2.682L16.884,18h2.754Zm8.226,4.77a4.257,4.257,0,0,0,3.546-1.8l-1.782-1.242a2.219,2.219,0,0,1-1.746.846,2.18,2.18,0,0,1-2.232-2.25,2.147,2.147,0,0,1,2.232-2.2,2.219,2.219,0,0,1,1.746.846l1.782-1.242a4.257,4.257,0,0,0-3.546-1.8,4.423,4.423,0,1,0,0,8.838ZM38,13.662a4.2,4.2,0,0,0-4.374-4.284,4.321,4.321,0,0,0-4.464,4.428,4.283,4.283,0,0,0,4.482,4.41,4.7,4.7,0,0,0,3.726-1.692L36,15.138a3,3,0,0,1-2.214.99,2.057,2.057,0,0,1-2.16-1.566h6.318C37.98,14.184,38,13.9,38,13.662Zm-6.372-.63a1.954,1.954,0,0,1,2.052-1.62,1.791,1.791,0,0,1,1.944,1.62ZM42.174,18V5.022H39.816V18Zm4.734,0V5.022H44.55V18Zm10.71-4.338a4.2,4.2,0,0,0-4.374-4.284,4.321,4.321,0,0,0-4.464,4.428,4.283,4.283,0,0,0,4.482,4.41,4.7,4.7,0,0,0,3.726-1.692L55.62,15.138a3,3,0,0,1-2.214.99,2.057,2.057,0,0,1-2.16-1.566h6.318C57.6,14.184,57.618,13.9,57.618,13.662Zm-6.372-.63a1.954,1.954,0,0,1,2.052-1.62,1.791,1.791,0,0,1,1.944,1.62ZM64.314,9.378a2.717,2.717,0,0,0-2.52,1.638V9.594H59.436V18h2.358V13.59a1.79,1.79,0,0,1,1.89-1.98c.81,0,1.6.594,1.6,1.908V18h2.358V13.392C67.662,10.872,66.51,9.378,64.314,9.378Zm8.658.216V6.534H70.614v3.06h-1.53V11.43h1.53V18h2.358V11.43h1.782V9.594Z" transform="translate(97 671)" fill="#fff" stroke="rgba(0,0,0,0)" stroke-width="1"></path></g></svg> 