<svg xmlns="http://www.w3.org/2000/svg" id="Group_1266" data-name="Group 1266" width="86.729" height="21.301" viewBox="0 0 86.729 21.301"><g id="Type" transform="translate(22.795 7.547)"><path id="Path_441" data-name="Path 441" d="M297.742,98.58h8.784v1.641h-3.45v9.21h-1.9v-9.21h-3.435Zm8.4,2.994h1.626v1.52h.03a1.75,1.75,0,0,1,.3-.623,2.886,2.886,0,0,1,.532-.555,2.684,2.684,0,0,1,.691-.4,2.072,2.072,0,0,1,.775-.152,3.811,3.811,0,0,1,.418.015l.236.03v1.672q-.182-.03-.372-.053a3.135,3.135,0,0,0-.372-.023,1.994,1.994,0,0,0-.828.175,1.9,1.9,0,0,0-.676.517,2.528,2.528,0,0,0-.456.843,3.646,3.646,0,0,0-.167,1.155v3.739h-1.732Zm12.555,7.857H317v-1.094h-.03a2.379,2.379,0,0,1-.95.95,2.58,2.58,0,0,1-1.284.357,2.885,2.885,0,0,1-2.242-.767,3.37,3.37,0,0,1-.691-2.318v-4.985h1.732v4.817a2.129,2.129,0,0,0,.4,1.459,1.438,1.438,0,0,0,1.109.426,2.186,2.186,0,0,0,.912-.167,1.609,1.609,0,0,0,.593-.448,1.718,1.718,0,0,0,.327-.676,3.5,3.5,0,0,0,.1-.851v-4.559H318.7Zm2.948-2.523a1.3,1.3,0,0,0,.577,1.064,2.271,2.271,0,0,0,1.2.3,4.621,4.621,0,0,0,.555-.038,2.4,2.4,0,0,0,.585-.144,1.1,1.1,0,0,0,.448-.312.749.749,0,0,0,.16-.54.766.766,0,0,0-.243-.547,1.689,1.689,0,0,0-.585-.342,5.7,5.7,0,0,0-.813-.22q-.456-.091-.927-.2a8.647,8.647,0,0,1-.935-.258,3,3,0,0,1-.805-.41,1.894,1.894,0,0,1-.57-.661,2.109,2.109,0,0,1-.213-1,1.787,1.787,0,0,1,.312-1.071,2.388,2.388,0,0,1,.79-.7,3.448,3.448,0,0,1,1.064-.372,6.262,6.262,0,0,1,1.117-.106,5.125,5.125,0,0,1,1.163.129,3.167,3.167,0,0,1,1,.418,2.456,2.456,0,0,1,.745.752,2.606,2.606,0,0,1,.372,1.117H324.84a1.08,1.08,0,0,0-.57-.836,2.367,2.367,0,0,0-1.026-.213,3.7,3.7,0,0,0-.433.03,2.017,2.017,0,0,0-.471.114.989.989,0,0,0-.372.243.581.581,0,0,0-.152.418.66.66,0,0,0,.22.517,1.738,1.738,0,0,0,.578.327,5.655,5.655,0,0,0,.813.22q.456.091.942.2.471.106.927.258a3,3,0,0,1,.813.41,2,2,0,0,1,.578.654,1.975,1.975,0,0,1,.22.973,2.112,2.112,0,0,1-.319,1.185,2.52,2.52,0,0,1-.828.79,3.764,3.764,0,0,1-1.132.441,5.731,5.731,0,0,1-1.231.137,5.358,5.358,0,0,1-1.375-.167,3.2,3.2,0,0,1-1.094-.509,2.453,2.453,0,0,1-.729-.851,2.7,2.7,0,0,1-.281-1.208Zm5.714-5.334h1.307V99.218H330.4v2.356h1.565v1.292H330.4v4.194a4.174,4.174,0,0,0,.023.471.811.811,0,0,0,.106.334.507.507,0,0,0,.251.205,1.232,1.232,0,0,0,.456.068q.183,0,.365-.008a1.811,1.811,0,0,0,.365-.053v1.337l-.562.061a5.122,5.122,0,0,1-.562.03,3.84,3.84,0,0,1-1.1-.129,1.468,1.468,0,0,1-.653-.38,1.307,1.307,0,0,1-.319-.631,4.718,4.718,0,0,1-.1-.866v-4.635h-1.307Zm5.82,0h1.641v1.064h.03a2.141,2.141,0,0,1,1.018-.98,3.379,3.379,0,0,1,1.413-.3,3.754,3.754,0,0,1,1.618.327,3.193,3.193,0,0,1,1.147.9,3.9,3.9,0,0,1,.684,1.33,5.633,5.633,0,0,1,.228,1.626,5.753,5.753,0,0,1-.205,1.535,4,4,0,0,1-.623,1.315,3.037,3.037,0,0,1-2.561,1.254,4.283,4.283,0,0,1-.76-.068,3.29,3.29,0,0,1-.729-.22,2.865,2.865,0,0,1-.646-.388,2.146,2.146,0,0,1-.494-.555h-.03v3.921h-1.733Zm6.048,3.936a3.91,3.91,0,0,0-.137-1.033,2.808,2.808,0,0,0-.41-.889,2.121,2.121,0,0,0-.684-.623,1.86,1.86,0,0,0-.942-.236,1.911,1.911,0,0,0-1.649.76,3.353,3.353,0,0,0-.555,2.021,4.017,4.017,0,0,0,.144,1.1,2.474,2.474,0,0,0,.433.874,2.158,2.158,0,0,0,.691.577,1.969,1.969,0,0,0,.935.213,1.935,1.935,0,0,0,1-.243,2.122,2.122,0,0,0,.676-.631,2.562,2.562,0,0,0,.38-.882A4.476,4.476,0,0,0,339.232,105.51Zm3.054-6.93h1.732v1.641h-1.732Zm0,2.994h1.732v7.857h-1.732Zm3.281-2.994H347.3v10.851h-1.732Zm7.036,11.063a4.28,4.28,0,0,1-1.679-.312,3.577,3.577,0,0,1-1.246-.859,3.666,3.666,0,0,1-.775-1.307,5.338,5.338,0,0,1,0-3.328,3.668,3.668,0,0,1,.775-1.307,3.581,3.581,0,0,1,1.246-.859,4.682,4.682,0,0,1,3.359,0,3.586,3.586,0,0,1,1.246.859,3.678,3.678,0,0,1,.775,1.307,5.341,5.341,0,0,1,0,3.328,3.676,3.676,0,0,1-.775,1.307,3.582,3.582,0,0,1-1.246.859A4.281,4.281,0,0,1,352.6,109.643Zm0-1.368a1.987,1.987,0,0,0,1-.243,2.11,2.11,0,0,0,.7-.638,2.784,2.784,0,0,0,.4-.889,3.987,3.987,0,0,0,0-2.014,2.69,2.69,0,0,0-.4-.889,2.148,2.148,0,0,0-.7-.631,2.19,2.19,0,0,0-2.006,0,2.147,2.147,0,0,0-.7.631,2.688,2.688,0,0,0-.4.889,3.988,3.988,0,0,0,0,2.014,2.782,2.782,0,0,0,.4.889,2.11,2.11,0,0,0,.7.638A1.987,1.987,0,0,0,352.6,108.276Zm4.468-6.7h1.307V99.218h1.732v2.356h1.565v1.292h-1.565v4.194a4.2,4.2,0,0,0,.023.471.812.812,0,0,0,.106.334.507.507,0,0,0,.251.205,1.232,1.232,0,0,0,.456.068q.182,0,.365-.008a1.81,1.81,0,0,0,.365-.053v1.337l-.562.061a5.122,5.122,0,0,1-.562.03,3.839,3.839,0,0,1-1.1-.129,1.468,1.468,0,0,1-.653-.38,1.307,1.307,0,0,1-.319-.631,4.708,4.708,0,0,1-.1-.866v-4.635h-1.307Z" transform="translate(-297.742 -98.58)" fill="#fff"></path></g><g id="Star"><path id="Path_442" data-name="Path 442" d="M20.772,7.547H12.838L10.386,0,7.935,7.545H0l6.42,4.666L3.968,19.756l6.419-4.664L16.8,19.756l-2.451-7.545,6.419-4.664h0Z" fill="#54c383"></path><path id="Path_443" data-name="Path 443" d="M140.194,161.207l-.556-1.71-3.966,2.881Z" transform="translate(-125.285 -147.285)" fill="#184625"></path></g></svg>