<?xml version="1.0" encoding="UTF-8"?> <svg xmlns="http://www.w3.org/2000/svg" xmlns:xlink="http://www.w3.org/1999/xlink" width="160" height="67.244" viewBox="0 0 160 67.244"><defs><linearGradient id="linear-gradient" y1="0.5" x2="1" y2="0.5" gradientUnits="objectBoundingBox"><stop offset="0" stop-color="#a7a9ab"></stop><stop offset="0.148" stop-color="#bec0c1"></stop><stop offset="0.405" stop-color="#e2e2e3"></stop><stop offset="0.616" stop-color="#f7f7f7"></stop><stop offset="0.753" stop-color="#fff"></stop></linearGradient></defs><g id="UK_Debt_Expert_Logo" data-name="UK Debt Expert Logo" transform="translate(-199.5 -215.1)"><g id="Group_1" data-name="Group 1" transform="translate(199.5 215.1)"><path id="Path_1" data-name="Path 1" d="M262.921,218.673l-11.4-.679-48.2-2.894L203,219.959l-.286,4.9-.286,4.859-.286,4.9-.286,4.9-.322,4.859-.286,4.9-.286,4.859-.286,4.9-.286,4.859-.322,4.9-.286,4.9-.286,4.859,63.421,3.823Z" transform="translate(-199.5 -215.1)" fill="url(#linear-gradient)"></path><path id="Path_2" data-name="Path 2" d="M199.5,215.5v4.716l32.836,16.436H241.8Z" transform="translate(-199.5 -215.357)" fill="#cf172c"></path><path id="Path_3" data-name="Path 3" d="M277.9,215.5H239.2l38.7,19.33Z" transform="translate(-225.015 -215.357)" fill="#25346d"></path><path id="Path_4" data-name="Path 4" d="M199.5,333.8v14.078L227.62,333.8Z" transform="translate(-199.5 -291.388)" fill="#25346d"></path><path id="Path_5" data-name="Path 5" d="M199.5,235.3v14.078h28.12Z" transform="translate(-199.5 -228.082)" fill="#25346d"></path><path id="Path_6" data-name="Path 6" d="M246.521,333.8H241.8l-42.3,21.152h9.469L251.237,333.8Z" transform="translate(-199.5 -291.388)" fill="#cf172c"></path><path id="Path_7" data-name="Path 7" d="M239.2,358.23h38.7V338.9Z" transform="translate(-225.015 -294.666)" fill="#25346d"></path><path id="Path_8" data-name="Path 8" d="M252.381,215.5v19.33l-38.7-19.33H199.5l42.3,21.152h-9.469L199.5,220.216v2.358l28.12,14.078H199.5v4.216h57.1V215.5Z" transform="translate(-199.5 -215.357)" fill="#fff"></path><path id="Path_9" data-name="Path 9" d="M254.989,322H199.5v4.216h28.12L199.5,340.294v7.075l42.3-21.152h9.433l-42.269,21.152h4.716l38.7-19.33v19.33H256.6V322Z" transform="translate(-199.5 -283.804)" fill="#fff"></path><path id="Path_10" data-name="Path 10" d="M256.6,257.483v21.438h6.324V215.5H256.6v25.368H199.5v12.684h57.1v3.93Z" transform="translate(-199.5 -215.357)" fill="#cf172c"></path></g><g id="Group_5" data-name="Group 5" transform="translate(267.245 215.171)"><g id="Group_2" data-name="Group 2" transform="translate(0)"><path id="Path_11" data-name="Path 11" d="M396.568,232.879c-4.645,0-7.468-2.573-7.468-7.682v-9.862h3.787v9.754c0,2.823,1.393,4.252,3.716,4.252s3.716-1.393,3.716-4.145v-9.9h3.787v9.719C404.142,230.307,401.213,232.879,396.568,232.879Z" transform="translate(-389.1 -215.3)" fill="#25346d"></path><path id="Path_12" data-name="Path 12" d="M449.648,232.758l-5.36-7.36-2,2.072v5.288H438.5V215.5h3.787v7.539l7-7.539h4.573l-7,7.325,7.36,9.933Z" transform="translate(-420.849 -215.429)" fill="#25346d"></path></g><g id="Group_3" data-name="Group 3" transform="translate(0 23.046)"><path id="Path_13" data-name="Path 13" d="M395.817,297.058H389.1V279.8h6.717c5.431,0,9.183,3.716,9.183,8.575v.036C405,293.306,401.248,297.058,395.817,297.058Zm5.217-8.611a4.97,4.97,0,0,0-5.217-5.217h-2.93v10.4h2.93a4.933,4.933,0,0,0,5.217-5.145Z" transform="translate(-389.1 -279.8)" fill="#cf172c"></path><path id="Path_14" data-name="Path 14" d="M439.6,297.058V279.8h13.006v3.359h-9.254v3.5H451.5v3.394h-8.146v3.609h9.361v3.394Z" transform="translate(-421.556 -279.8)" fill="#cf172c"></path><path id="Path_15" data-name="Path 15" d="M490.518,297.058H482.3V279.8h8c3.537,0,5.681,1.751,5.681,4.466v.036a4.028,4.028,0,0,1-2.251,3.716c2,.75,3.216,1.929,3.216,4.252v.036C496.985,295.486,494.413,297.058,490.518,297.058Zm1.751-12.148c0-1.143-.893-1.786-2.5-1.786h-3.752v3.645h3.5c1.679,0,2.751-.536,2.751-1.822Zm.929,6.9c0-1.143-.858-1.858-2.823-1.858H485.98v3.787h4.5c1.679,0,2.68-.607,2.68-1.858v-.071Z" transform="translate(-448.999 -279.8)" fill="#cf172c"></path><path id="Path_16" data-name="Path 16" d="M533.64,283.3v13.756h-3.787V283.3H524.6v-3.5h14.292v3.5Z" transform="translate(-476.186 -279.8)" fill="#cf172c"></path></g><g id="Group_4" data-name="Group 4" transform="translate(0 45.913)"><path id="Path_17" data-name="Path 17" d="M389.1,361.058V343.8h13.006v3.394h-9.254v3.5H401v3.394h-8.146V357.7h9.361v3.394H389.1Z" transform="translate(-389.1 -343.8)" fill="#cf172c"></path><path id="Path_18" data-name="Path 18" d="M440.277,361.058l-3.859-5.931-3.895,5.931H428.2l6-8.79L428.45,343.8h4.431l3.609,5.61,3.645-5.61h4.323l-5.753,8.432,6,8.825Z" transform="translate(-414.229 -343.8)" fill="#cf172c"></path><path id="Path_19" data-name="Path 19" d="M485.582,355.877h-2.894v5.181H478.9V343.8h7.039c4.109,0,6.61,2.43,6.61,5.967v.036C492.549,353.84,489.44,355.877,485.582,355.877Zm3.144-6.038c0-1.715-1.179-2.608-3.073-2.608h-2.93v5.288h3c1.894,0,3-1.143,3-2.608Z" transform="translate(-446.814 -343.8)" fill="#cf172c"></path><path id="Path_20" data-name="Path 20" d="M521.5,361.058V343.8h13.042v3.394h-9.254v3.5h8.147v3.394h-8.147V357.7h9.361v3.394H521.5Z" transform="translate(-474.193 -343.8)" fill="#cf172c"></path><path id="Path_21" data-name="Path 21" d="M574.833,361.058l-3.68-5.538h-2.966v5.538H564.4V343.8h7.9c4.073,0,6.5,2.144,6.5,5.681v.036a5.381,5.381,0,0,1-3.68,5.36l4.216,6.146h-4.5ZM574.9,349.7c0-1.644-1.143-2.465-2.966-2.465h-3.787V352.2h3.859c1.858,0,2.894-1,2.894-2.43Z" transform="translate(-501.765 -343.8)" fill="#cf172c"></path><path id="Path_22" data-name="Path 22" d="M616.34,347.3v13.756h-3.787V347.3H607.3v-3.5h14.292v3.5Z" transform="translate(-529.337 -343.8)" fill="#cf172c"></path></g></g></g></svg> 