<svg xmlns="http://www.w3.org/2000/svg" xmlns:xlink="http://www.w3.org/1999/xlink" id="Group_2241" data-name="Group 2241" width="56.328" height="56.328" viewBox="0 0 56.328 56.328"><defs><clipPath id="clip-path"><rect id="Rectangle_1828" data-name="Rectangle 1828" width="56.328" height="56.328" fill="#162b5a"></rect></clipPath></defs><g id="Group_2240" data-name="Group 2240" clip-path="url(#clip-path)"><path id="Path_1107" data-name="Path 1107" d="M28.164,0A28.164,28.164,0,1,0,56.328,28.164,28.164,28.164,0,0,0,28.164,0M15.031,20.387a5.5,5.5,0,1,1,5.5,5.5,5.5,5.5,0,0,1-5.5-5.5M19.7,39.575l-3-3L36.13,17.142l3,3Zm16.1,1.869a5.5,5.5,0,1,1,5.5-5.5,5.5,5.5,0,0,1-5.5,5.5" fill="#162b5a"></path></g></svg>