<svg xmlns="http://www.w3.org/2000/svg" xmlns:xlink="http://www.w3.org/1999/xlink" width="59" height="50" viewBox="0 0 59 50"><defs><clipPath id="clip-path"><rect id="Rectangle_1827" data-name="Rectangle 1827" width="59" height="50" transform="translate(0 0)" fill="none"></rect></clipPath></defs><g id="Group_2239" data-name="Group 2239" transform="translate(0 -0.496)"><g id="Group_2238" data-name="Group 2238" transform="translate(0 0.496)" clip-path="url(#clip-path)"><path id="Path_1105" data-name="Path 1105" d="M14.712,16.814V33.629a11.729,11.729,0,0,0,.189,2.123L7.608,41.573a2.1,2.1,0,0,1-3.342-2.144l1.555-6.2A8.413,8.413,0,0,1,0,25.221V8.407A8.4,8.4,0,0,1,8.407,0h23.12A8.365,8.365,0,0,1,38.8,4.2H27.323A12.621,12.621,0,0,0,14.712,16.814" transform="translate(0 -0.443)" fill="#162b5a"></path><path id="Path_1106" data-name="Path 1106" d="M40.527,4H17.407A8.4,8.4,0,0,0,9,12.407V29.221a8.4,8.4,0,0,0,8.407,8.407H31.384l9.941,7.945a2.02,2.02,0,0,0,1.3.462,1.994,1.994,0,0,0,1.135-.336,2.111,2.111,0,0,0,.9-2.27l-1.555-6.2a8.44,8.44,0,0,0,5.822-8.008V12.407A8.4,8.4,0,0,0,40.527,4" transform="translate(9.916 3.964)" fill="#c93d64"></path></g></g></svg>