<svg xmlns="http://www.w3.org/2000/svg" width="57.615" height="52" viewBox="0 0 57.615 52"><path id="Path_1108" data-name="Path 1108" d="M3.13,15.662,45.193,6.122,44.61,3.551a1.366,1.366,0,0,0-1.625-1.03L3.564,11.4a1.363,1.363,0,0,0-1.03,1.626c.2.874.4,1.762.6,2.636M2.78,9.069,42.7.086a3.542,3.542,0,0,1,4.229,2.675l4.184,18.49h-2.5l-1.9-8.374L4.652,22.416,7.255,33.9l.233,1.017a.76.76,0,0,0,.913.576l.311-.071v2.448l-.045.013a2.955,2.955,0,0,1-3.517-2.221L.092,13.3A3.533,3.533,0,0,1,2.78,9.069ZM13.142,21.918A3.546,3.546,0,0,0,9.606,25.46v23A3.541,3.541,0,0,0,13.142,52h40.93a3.55,3.55,0,0,0,3.542-3.536v-23a3.552,3.552,0,0,0-3.542-3.543Zm40.069,10.3V27.533a.539.539,0,0,0-.544-.544H42.195a.547.547,0,0,0-.544.544v4.682a.547.547,0,0,0,.544.544H52.667a.547.547,0,0,0,.544-.544m-7.72,14.2a.549.549,0,0,1-.551-.544V44.779a.549.549,0,0,1,.551-.544H52.66a.547.547,0,0,1,.544.544v1.088a.547.547,0,0,1-.544.544Zm-10.006,0a.547.547,0,0,1-.544-.544V44.785a.543.543,0,0,1,.544-.544h7.176a.547.547,0,0,1,.544.544v1.082a.547.547,0,0,1-.544.544Zm-10,0a.547.547,0,0,1-.544-.544V44.785a.543.543,0,0,1,.544-.544h7.176a.547.547,0,0,1,.544.544v1.082a.547.547,0,0,1-.544.544Zm-10,0a.547.547,0,0,1-.544-.544V44.785a.543.543,0,0,1,.544-.544h7.176a.547.547,0,0,1,.544.544v1.082a.547.547,0,0,1-.544.544Z" transform="translate(0 0)" fill="#162b5a" fill-rule="evenodd"></path></svg>