<svg xmlns="http://www.w3.org/2000/svg" xmlns:xlink="http://www.w3.org/1999/xlink" id="Group_2243" data-name="Group 2243" width="57.334" height="57.328" viewBox="0 0 57.334 57.328"><defs><clipPath id="clip-path"><rect id="Rectangle_1830" data-name="Rectangle 1830" width="57.334" height="57.328" fill="#162b5a"></rect></clipPath></defs><g id="Group_2242" data-name="Group 2242" transform="translate(0 0)" clip-path="url(#clip-path)"><path id="Path_1109" data-name="Path 1109" d="M28.667,0A28.671,28.671,0,1,0,48.95,8.4,28.611,28.611,0,0,0,28.667,0Zm0,4.969A23.619,23.619,0,0,1,42.56,9.489l-5.378,5.4a16.211,16.211,0,0,0-17.029,0l-5.378-5.4a23.616,23.616,0,0,1,13.892-4.52M9.476,14.788l5.4,5.4a16.3,16.3,0,0,0,0,16.99l-5.4,5.4a23.638,23.638,0,0,1,0-27.784m38.384,0a23.638,23.638,0,0,1,0,27.784l-5.4-5.4a16.3,16.3,0,0,0,0-16.99Zm-19.192,2.65a11.232,11.232,0,1,1-7.93,3.293,11.165,11.165,0,0,1,7.93-3.293M20.153,42.475a16.3,16.3,0,0,0,17.029,0l5.378,5.4a23.658,23.658,0,0,1-27.784,0Z" transform="translate(0 0)" fill="#162b5a"></path></g></svg>