<svg width="26" height="20" viewBox="0 0 26 20" fill="none" xmlns="http://www.w3.org/2000/svg">
<path d="M21.6667 0H4.33333C1.95 0 0 2 0 4.44444V5.55556C0 6.22222 0.433333 6.66667 1.08333 6.66667H24.9167C25.5667 6.66667 26 6.22222 26 5.55556V4.44444C26 2 24.05 0 21.6667 0Z" fill="#6C6C6C"/>
<path d="M24.9167 8.88892H1.08333C0.433333 8.88892 0 9.33336 0 10V15.5556C0 18 1.95 20 4.33333 20H21.6667C24.05 20 26 18 26 15.5556V10C26 9.33336 25.5667 8.88892 24.9167 8.88892ZM11.9167 16.6667H5.41667C4.76667 16.6667 4.33333 16.2222 4.33333 15.5556C4.33333 14.8889 4.76667 14.4445 5.41667 14.4445H11.9167C12.5667 14.4445 13 14.8889 13 15.5556C13 16.2222 12.5667 16.6667 11.9167 16.6667ZM20.5833 13.3334H18.4167C17.7667 13.3334 17.3333 12.8889 17.3333 12.2222C17.3333 11.5556 17.7667 11.1111 18.4167 11.1111H20.5833C21.2333 11.1111 21.6667 11.5556 21.6667 12.2222C21.6667 12.8889 21.2333 13.3334 20.5833 13.3334Z" fill="#6C6C6C"/>
</svg>